<?xml version="1.0" encoding="UTF-8"?>
<svg version="1.1" xmlns="http://www.w3.org/2000/svg" width="1275" height="1234">
<path d="M0 0 C420.75 0 841.5 0 1275 0 C1275 407.22 1275 814.44 1275 1234 C854.25 1234 433.5 1234 0 1234 C0 826.78 0 419.56 0 0 Z " fill="#FDFCFC" transform="translate(0,0)"/>
<path d="M0 0 C7.85600366 4.02885837 15.3906391 8.67279428 22.96142578 13.20605469 C26.97130413 15.59319601 31.01079883 17.92686172 35.05224609 20.26000977 C74.83158936 43.2612457 113.11367177 68.74641933 151.35858154 94.18634033 C153.0591655 95.31737148 154.76020343 96.44772041 156.46173096 97.57733154 C164.67554877 103.03262407 172.84291976 108.50647273 180.77612305 114.36499023 C184.37638366 117.00702362 188.06229131 119.51925147 191.75488281 122.02978516 C199.00380831 126.96621066 199.00380831 126.96621066 200.12988281 128.09228516 C201.56477354 128.12118565 203.00122748 128.07897648 204.43457031 128.00634766 C205.32917969 127.96251953 206.22378906 127.91869141 207.14550781 127.87353516 C208.08910156 127.82197266 209.03269531 127.77041016 210.00488281 127.71728516 C210.90980469 127.67345703 211.81472656 127.62962891 212.74707031 127.58447266 C217.24150506 127.35464361 221.71194865 127.04046526 226.19177246 126.61122131 C231.55870092 126.12142056 236.916739 125.80068546 242.30029297 125.56811523 C243.25116161 125.52588774 244.20203026 125.48366024 245.1817131 125.44015312 C248.30226623 125.30473886 251.42301608 125.1757581 254.54394531 125.04931641 C255.63372303 125.00506845 256.72350075 124.9608205 257.84630203 124.9152317 C282.272754 123.94629029 306.68246657 123.7370147 331.12573242 123.77523804 C334.56673654 123.77986839 338.00772348 123.78042386 341.44873047 123.78027344 C374.54456611 123.78854085 407.53250215 124.28900999 440.55508423 126.63496399 C452.24197899 128.1434187 452.24197899 128.1434187 462.81347656 124.48681641 C463.59787109 123.91382813 464.38226562 123.34083984 465.19042969 122.75048828 C465.97482422 122.14140625 466.75921875 121.53232422 467.56738281 120.90478516 C469.12681213 119.74225272 470.68811281 118.58222761 472.25097656 117.42431641 C473.13599854 116.76294678 474.02102051 116.10157715 474.93286133 115.42016602 C482.20187846 110.12730016 489.68934184 105.13953578 497.12988281 100.09228516 C498.00061432 99.5008371 498.87134583 98.90938904 499.76846313 98.30001831 C505.1925793 94.61612724 510.62211719 90.9403564 516.0559082 87.27075195 C517.90307077 86.02259852 519.74942031 84.77324107 521.5949707 83.52270508 C532.43786414 76.1759785 543.34400274 68.99159176 554.48947144 62.11270142 C558.30941169 59.7365114 562.05921588 57.2519185 565.81738281 54.77978516 C575.17689617 48.66678513 584.64113407 42.73945586 594.17480469 36.90234375 C596.81062985 35.28783551 599.44339921 33.66843949 602.07571411 32.04821777 C663.08087122 -5.46587131 663.08087122 -5.46587131 679.12988281 -3.90771484 C685.3053357 -2.15536411 689.65713568 1.77256742 693.12988281 7.09228516 C694.89100435 10.8890266 695.50103819 14.20476426 695.84082031 18.36572266 C695.94885986 19.63770508 696.05689941 20.9096875 696.16821289 22.22021484 C696.28056022 23.63589511 696.39277838 25.05158563 696.50488281 26.46728516 C696.63134249 27.9924116 696.75856331 29.51747509 696.88647461 31.04248047 C697.16268311 34.34558727 697.43476648 37.64900253 697.70458984 40.95263672 C698.11816937 45.9878393 698.5571768 51.02060683 699.00097656 56.05322266 C701.14836589 80.51292367 703.09604262 104.9882971 704.99365616 129.46844864 C705.19186152 132.02306641 705.39085332 134.57762205 705.5899353 137.13217163 C706.87225493 153.61438065 708.12817196 170.09256271 709.04003906 186.60009766 C709.10447708 187.74497147 709.1689151 188.88984528 709.23530579 190.06941223 C709.52268548 195.22911623 709.78907967 200.38834687 710.0168457 205.55102539 C710.10871975 207.31610643 710.20105299 209.08116366 710.29394531 210.84619141 C710.31985245 211.62249908 710.34575958 212.39880676 710.37245178 213.19863892 C710.64777705 218.02213574 711.57581613 220.7665165 715.12988281 224.09228516 C718.58692778 224.92574331 718.58692778 224.92574331 722.12988281 224.09228516 C724.92424014 222.07426555 726.81562152 220.47423398 727.60171509 217.01742554 C727.80500676 214.47265829 727.84815788 211.96936842 727.83691406 209.41650391 C727.85203537 208.49134476 727.86715668 207.56618561 727.88273621 206.61299133 C727.92560248 203.66834113 727.93445018 200.72471624 727.94238281 197.77978516 C727.96552795 195.77910688 727.99089332 193.77845297 728.01855469 191.77783203 C728.08139659 186.88255914 728.11374021 181.98792579 728.12988281 177.09228516 C745.69784874 180.48756088 762.98128433 191.65115322 773.34082031 206.08837891 C777.68279234 213.37872059 779.7257936 219.30506785 779.63045406 227.81377506 C779.63872531 229.22626277 779.63872531 229.22626277 779.64716366 230.66728559 C779.66073855 233.81671317 779.64587203 236.96534877 779.63108826 240.11476135 C779.63498182 242.39784543 779.6406227 244.68092709 779.64785916 246.96400303 C779.66262353 253.23338057 779.65242649 259.5025072 779.63812244 265.77187669 C779.62816255 271.84003651 779.63698612 277.90814326 779.64524638 283.97630066 C779.66243006 297.15183199 779.65690288 310.32728006 779.64188919 323.50280966 C779.62883584 335.03232099 779.62364175 346.56180343 779.62620735 358.09132195 C779.62644798 359.23862712 779.62644798 359.23862712 779.62669346 360.40911017 C779.62735705 363.51398029 779.62805946 366.61885039 779.6288188 369.72372048 C779.63584213 398.84683022 779.62035368 427.96988912 779.59419534 457.09298592 C779.57107814 482.9673614 779.56569304 508.84168098 779.57592773 534.71606445 C779.57852975 541.34231088 779.58111476 547.96855731 779.58352566 554.59480381 C779.58382311 555.41057259 779.58412055 556.22634136 779.58442701 557.0668304 C779.59204144 578.68801781 779.58563019 600.30920064 779.57482964 621.93038601 C779.57368183 624.25675979 779.57253865 626.58313358 779.57140281 628.90950738 C779.57064757 630.45275795 779.56988192 631.99600851 779.56910581 633.53925907 C779.56344706 645.06223976 779.5647777 656.58520598 779.56933403 668.10818672 C779.5744408 681.20940951 779.56859342 694.31057817 779.54843973 707.41178746 C779.53841852 714.09827541 779.53347343 720.78466409 779.54133224 727.4711628 C779.54837615 733.58940441 779.54161444 739.70746799 779.52372862 745.82568609 C779.51967579 748.04155751 779.52069791 750.25744509 779.52724748 752.47331054 C779.53537893 755.48129959 779.52510779 758.48868602 779.51019955 761.49663639 C779.52030602 762.79205783 779.52030602 762.79205783 779.53061667 764.1136494 C779.37470165 780.3409941 768.5779512 795.4427525 757.67285156 806.60791016 C738.86748635 824.53926289 714.53809855 836.05344236 691.12988281 846.71728516 C690.37223633 847.06533203 689.61458984 847.41337891 688.83398438 847.77197266 C676.03092435 853.52663947 662.6899238 858.04434068 649.37988281 862.46728516 C648.6763266 862.70151184 647.97277039 862.93573853 647.24789429 863.17706299 C623.39385695 871.09617916 599.284009 877.93039653 574.55615234 882.53417969 C572.03341495 883.07051749 572.03341495 883.07051749 569.28076172 884.06665039 C565.85426445 885.18200101 562.50449952 885.85848793 558.95800781 886.49462891 C558.27671814 886.61786026 557.59542847 886.74109161 556.89349365 886.86805725 C554.72300987 887.25943747 552.55147026 887.64458171 550.37988281 888.02978516 C548.96965812 888.28396299 547.55950129 888.5385177 546.14941406 888.79345703 C541.81213598 889.57459123 537.47161414 890.33634023 533.12988281 891.09228516 C532.40215668 891.21976135 531.67443054 891.34723755 530.9246521 891.47857666 C519.29994807 893.50543826 507.65354892 895.15303698 495.94238281 896.59228516 C495.07959717 896.69933777 494.21681152 896.80639038 493.32788086 896.91668701 C478.18945272 898.79076024 463.04283071 900.37444898 447.85009766 901.74511719 C444.11341535 902.09382189 440.38173292 902.47713626 436.64941406 902.86962891 C373.74229165 909.3855995 309.20390236 909.23028161 246.12988281 905.09228516 C244.94652344 905.01751953 243.76316406 904.94275391 242.54394531 904.86572266 C235.39279236 904.39821387 228.26349926 903.77330565 221.12988281 903.09228516 C219.58873439 902.94857159 218.04755349 902.80520601 216.50634766 902.66210938 C182.8998442 899.5338946 182.8998442 899.5338946 166.19238281 897.46728516 C165.2899585 897.35650635 164.38753418 897.24572754 163.45776367 897.1315918 C159.42210764 896.6104245 155.44981622 895.97507048 151.46826172 895.13305664 C146.31178224 894.08901769 141.14837248 893.38476936 135.93066406 892.72900391 C124.3090081 891.20006145 112.82226751 889.13640324 101.31738281 886.90478516 C100.30473358 886.70975403 99.29208435 886.5147229 98.24874878 886.31378174 C65.41593759 879.97037416 33.45187339 871.56851311 1.69238281 861.09228516 C0.94346771 860.8468396 0.19455261 860.60139404 -0.57705688 860.34851074 C-10.90322953 856.95372134 -20.96831976 853.13524511 -30.97451782 848.89031982 C-32.68887859 848.1685854 -34.41221177 847.46825496 -36.13647461 846.77050781 C-43.67006158 843.7203873 -50.90621016 840.20765717 -58.12011719 836.46728516 C-58.70662048 836.16370087 -59.29312378 835.86011658 -59.8973999 835.54733276 C-69.76515381 830.41799831 -78.989034 824.7830644 -87.87011719 818.09228516 C-89.21396484 817.09068359 -89.21396484 817.09068359 -90.58496094 816.06884766 C-92.7134655 814.4467926 -94.79719253 812.78438023 -96.87011719 811.09228516 C-97.45664063 810.63982422 -98.04316406 810.18736328 -98.64746094 809.72119141 C-111.40335745 799.51068921 -121.18972502 784.26987534 -123.87011719 768.09228516 C-124.58465453 760.62904402 -124.42415515 753.11155379 -124.39823914 745.62280273 C-124.40500428 743.35205185 -124.41349839 741.08130557 -124.42356235 738.8105669 C-124.4460063 732.59829553 -124.44364137 726.38624795 -124.436993 720.17394876 C-124.43440838 714.15360718 -124.45057141 708.13333261 -124.46597904 702.11301729 C-124.50048161 688.28819213 -124.50789402 674.46343353 -124.50657012 660.6385715 C-124.50565534 649.96205108 -124.51154646 639.2855543 -124.52219582 628.60903931 C-124.52369411 627.07317092 -124.52518814 625.53730254 -124.52667794 624.00143415 C-124.52741777 623.23899766 -124.52815759 622.47656118 -124.52891984 621.69102056 C-124.52966025 620.92716462 -124.53040066 620.16330867 -124.53116351 619.37630558 C-124.53190855 618.61113889 -124.53265359 617.8459722 -124.53342121 617.05761864 C-124.55414524 595.54992315 -124.5663919 574.04223622 -124.56132793 552.53453064 C-124.5611404 551.72443478 -124.56095287 550.91433892 -124.56075965 550.0796947 C-124.5597877 545.97413563 -124.55874385 541.86857658 -124.55767693 537.76301754 C-124.55736047 536.54002659 -124.55736047 536.54002659 -124.55703761 535.29232876 C-124.55661007 533.64354195 -124.55617795 531.99475513 -124.55574124 530.34596832 C-124.54915705 504.68548951 -124.57211783 479.0251831 -124.61791992 453.36474609 C-124.66938251 424.51256512 -124.69729327 395.66049454 -124.69141799 366.80826473 C-124.69087341 363.73068683 -124.69041444 360.65310893 -124.69001198 357.57553101 C-124.68989794 356.81779317 -124.6897839 356.06005533 -124.6896664 355.27935574 C-124.68844403 343.8536347 -124.70570412 332.42803675 -124.73248863 321.00234985 C-124.76294658 308.00639877 -124.76901565 295.01070021 -124.74267962 282.01473451 C-124.72991224 275.38609412 -124.72905581 268.75785151 -124.75838852 262.12922287 C-124.78496848 256.05687798 -124.77902356 249.98545133 -124.74755857 243.91313779 C-124.74183921 241.72085656 -124.7478488 239.52850541 -124.76701459 237.33630049 C-124.90480392 220.42872773 -122.45136537 208.83073757 -110.22949219 196.26025391 C-104.0832077 190.61259183 -97.24424839 186.5995661 -89.87011719 182.77978516 C-89.23001709 182.44188965 -88.58991699 182.10399414 -87.93041992 181.75585938 C-84.20365216 179.89882233 -80.71212606 178.75881082 -76.61230469 177.98608398 C-75.72140137 177.81579178 -74.83049805 177.64549957 -73.91259766 177.470047 C-73.2385791 177.34538559 -72.56456055 177.22072418 -71.87011719 177.09228516 C-71.85609863 178.96146606 -71.85609863 178.96146606 -71.84179688 180.8684082 C-71.80186854 185.49995424 -71.73610156 190.13083802 -71.66259766 194.76196289 C-71.63440457 196.76480592 -71.61318177 198.76775986 -71.59912109 200.77075195 C-71.57766864 203.65324623 -71.53100662 206.53440925 -71.47949219 209.41650391 C-71.47826355 210.30939621 -71.47703491 211.20228851 -71.47576904 212.12223816 C-71.37780238 216.29800465 -71.21324141 218.54248069 -68.95703125 222.15771484 C-66.70195447 224.24817208 -65.89235008 224.75513273 -62.87011719 224.65478516 C-62.21011719 224.65607422 -61.55011719 224.65736328 -60.87011719 224.65869141 C-57.90534633 223.81905903 -56.78575221 222.50178516 -54.87011719 220.09228516 C-54.33522003 217.47579646 -54.04100176 215.20656264 -53.89697266 212.56762695 C-53.84107971 211.81394836 -53.78518677 211.06026978 -53.7276001 210.28375244 C-53.54676529 207.7872213 -53.39208875 205.28977434 -53.23730469 202.79150391 C-53.11495576 201.03616352 -52.9909134 199.28094042 -52.86526489 197.52583313 C-52.53756458 192.88813062 -52.23167376 188.24924274 -51.93066406 183.60974121 C-51.62686095 178.9761441 -51.30492391 174.3438214 -50.98339844 169.71142578 C-50.61055083 164.32871121 -50.23858695 158.94595749 -49.87457275 153.56263733 C-49.21403689 143.82085001 -48.49358342 134.09045619 -47.60946655 124.3659668 C-46.89268247 116.48143351 -46.26605233 108.5908361 -45.65136719 100.69775391 C-45.54562888 99.34549101 -45.43984474 97.99323169 -45.33401489 96.64097595 C-44.90297513 91.12857433 -44.47312339 85.61608362 -44.04736328 80.10327148 C-41.95426617 53.02535892 -41.95426617 53.02535892 -40.48789978 40.63557434 C-39.78655155 34.64581389 -39.49919536 28.69566277 -39.39160156 22.67041016 C-39.10690492 14.58780298 -36.59783029 6.99182965 -30.87011719 1.09228516 C-21.1870557 -6.63854619 -10.64208461 -5.07754167 0 0 Z " fill="#394047" transform="translate(309.8701171875,123.90771484375)"/>
<path d="M0 0 C0 31.68 0 63.36 0 96 C-16.63713212 99.56509974 -33.03557009 103.05669784 -49.8125 105.625 C-50.74867157 105.77030151 -51.68484314 105.91560303 -52.64938354 106.06530762 C-58.26527307 106.93687653 -63.88353832 107.79100611 -69.50463867 108.6282959 C-71.08115979 108.86313137 -72.65751739 109.09906959 -74.23364258 109.33654785 C-96.31250836 112.66252252 -118.42871439 114.33493836 -140.70117188 115.67529297 C-144.0239548 115.87582641 -147.34529379 116.088649 -150.66601562 116.32080078 C-174.85332613 118.01155621 -199.01457263 118.18387463 -223.25 118.1875 C-224.03890499 118.18802242 -224.82780998 118.18854485 -225.64062119 118.1890831 C-247.04559767 118.20209348 -268.35882346 118.05455158 -289.6875 116 C-297.95603076 115.2382496 -306.21033411 114.64885394 -314.50390625 114.24609375 C-318 114 -318 114 -320.734375 113.52734375 C-325.69111035 112.726914 -330.68177567 112.47869608 -335.6875 112.125 C-344.99567334 111.42431243 -354.11608494 110.34523422 -363.3125 108.7734375 C-367.37296972 108.08247522 -371.44106041 107.54018697 -375.52709961 107.02514648 C-385.9598968 105.70106109 -396.29092668 103.93397929 -406.625 102 C-407.30186859 101.87434662 -407.97873718 101.74869324 -408.67611694 101.61923218 C-417.2295877 100.02474201 -425.53504663 98.11623834 -434 96 C-434 64.65 -434 33.3 -434 1 C-426.63707074 1.61357744 -419.83906392 2.26108925 -412.6875 3.6875 C-401.85041509 5.75067838 -390.965353 7.45407304 -380.0625 9.125 C-379.23164886 9.25296967 -378.40079773 9.38093933 -377.54476929 9.51278687 C-363.15069616 11.7269728 -348.78140946 13.91131957 -334.25 15 C-327.96067397 15.49335725 -321.68323225 16.00013125 -315.41726685 16.73649597 C-285.82096971 20.13869303 -256.0989528 20.35034538 -226.34716797 20.31567383 C-222.05734702 20.31106772 -217.76781139 20.31789129 -213.47802734 20.33618164 C-172.849743 20.50767342 -132.35756304 18.87956833 -92 14 C-90.44890705 13.81482562 -88.89779941 13.62977421 -87.34667969 13.44482422 C-70.48012509 11.42588966 -53.62389813 9.31489921 -36.8125 6.875 C-35.78817871 6.72877197 -34.76385742 6.58254395 -33.70849609 6.43188477 C-27.38693309 5.48611844 -21.19973421 4.1956031 -14.98388672 2.70629883 C-3.55063947 0 -3.55063947 0 0 0 Z " fill="#FBFBFB" transform="translate(855,706)"/>
<path d="M0 0 C16.83 2.97 16.83 2.97 34 6 C41.35557855 7.13680594 41.35557855 7.13680594 48.71875 8.22265625 C53.62508323 8.93119764 58.51770433 9.71868821 63.41186523 10.50639343 C87.27323574 14.33863199 111.00867269 17.0454767 135.125 18.625 C136.07957092 18.68762024 137.03414185 18.75024048 138.01763916 18.8147583 C144.67652355 19.24591115 151.33700142 19.63809733 158 20 C159.37079712 20.07528931 159.37079712 20.07528931 160.76928711 20.15209961 C179.5883021 21.1511481 198.40985419 21.24208185 217.25 21.25 C218.05590954 21.25073643 218.86181908 21.25147285 219.69215012 21.2522316 C248.34395693 21.27347214 276.82297576 20.43472262 305.39923096 18.20245361 C307.8645564 18.01054344 310.33031561 17.82608467 312.79638672 17.64404297 C333.62114771 16.0888486 354.25645909 13.3792591 374.90484619 10.31109619 C376.96282643 10.00551967 379.02115862 9.70242436 381.07958984 9.39990234 C384.76240104 8.85640073 388.44403653 8.30586673 392.125 7.75 C393.75199829 7.50552124 393.75199829 7.50552124 395.41186523 7.25610352 C396.88248413 7.0287854 396.88248413 7.0287854 398.3828125 6.796875 C399.23246582 6.66635742 400.08211914 6.53583984 400.95751953 6.40136719 C403.05538609 6.08328858 403.05538609 6.08328858 405 5 C406.41298094 4.8219644 407.83076636 4.68076947 409.25 4.5625 C413.09695309 4.17107711 416.33835185 3.27036772 420 2 C424.72538544 0.89213451 429.13358892 0 434 0 C434 31.68 434 63.36 434 96 C415.29829592 101.34334402 396.21348906 104.20209879 377 107 C375.90634125 107.15982361 375.90634125 107.15982361 374.79058838 107.32287598 C357.41709659 109.85468414 340.01505756 112.11969765 322.55126953 113.93502808 C321.00733276 114.09568652 319.46367444 114.25906121 317.92041016 114.42605591 C285.9290252 117.85350976 253.72545477 118.33750259 221.58325195 118.26074219 C216.76732663 118.24932449 211.95162196 118.25615462 207.13570404 118.26762581 C166.54833654 118.34942249 125.3904282 117.25707314 85.26855469 110.62158203 C76.11056717 109.11598513 66.92604044 107.95568677 57.7166748 106.82019043 C45.24389027 105.2792308 32.84433461 103.73483717 20.56640625 100.9921875 C13.74220568 99.50942707 6.86381893 98.28696605 0 97 C0 64.99 0 32.98 0 0 Z " fill="#FBFBFB" transform="translate(421,838)"/>
<path d="M0 0 C2.64826965 1.47937012 2.64826965 1.47937012 5 4 C5.74164997 6.9589078 5.66994923 9.85512673 5.62768555 12.89257812 C5.63495667 13.79072235 5.64222778 14.68886658 5.64971924 15.61422729 C5.6683359 18.58696718 5.65222558 21.55850903 5.63671875 24.53125 C5.64476107 26.60429964 5.65528043 28.67734102 5.66816711 30.75036621 C5.69676169 36.21702603 5.69728734 41.68330736 5.69030762 47.15002441 C5.68299873 55.87079687 5.71456178 64.59144504 5.75275612 73.31211853 C5.76154207 76.34525466 5.75632783 79.37811976 5.74919128 82.41125488 C5.7564185 101.31018085 7.92087938 116.7473426 20 132 C20.62261719 132.79921875 21.24523437 133.5984375 21.88671875 134.421875 C32.89458406 147.58937865 47.91234174 156.28066074 63 164 C63.77875488 164.40428223 64.55750977 164.80856445 65.35986328 165.22509766 C88.01945791 176.88533776 112.50280355 185.1379913 137 192 C137.91201172 192.25587891 138.82402344 192.51175781 139.76367188 192.77539062 C162.45696652 199.06581265 185.49432531 203.85715412 208.75585938 207.48486328 C212.24240963 208.0384922 215.72246205 208.62537664 219.203125 209.21484375 C247.96862255 214.00787234 276.92689196 216.5829695 306 218.6875 C306.83408386 218.74834778 307.66816772 218.80919556 308.52752686 218.87188721 C314.3493311 219.29141039 320.17311044 219.65891652 326 220 C326.80475769 220.04979004 327.60951538 220.09958008 328.43865967 220.15087891 C349.32899662 221.40067965 370.27225473 221.15279175 391.19042969 221.13037109 C396.55270906 221.12466773 401.9149384 221.12797002 407.27721596 221.13394356 C411.48145915 221.13759935 415.68569096 221.13638798 419.88993454 221.13381577 C421.86458721 221.13316067 423.83924101 221.13392368 425.81389236 221.13629532 C446.35513034 221.15557339 466.82244138 220.14818337 487.3125 218.75 C488.67207321 218.65729324 488.67207321 218.65729324 490.05911255 218.56271362 C510.47215139 217.14266651 530.72684748 214.74023844 551 212 C551.71021301 211.90462952 552.42042603 211.80925903 553.15216064 211.71099854 C592.47550804 206.42585736 631.0688775 198.69896585 669 187 C670.23347168 186.62230469 671.46694336 186.24460937 672.73779297 185.85546875 C709.39866119 174.50578932 756.65984511 157.10054693 776.4609375 121.36328125 C781.55443927 111.5148631 783.14002834 102.550275 783.17358398 91.5480957 C783.180271 90.62690948 783.18695801 89.70572327 783.19384766 88.75662231 C783.20783768 86.76727397 783.21975065 84.77791015 783.22979546 82.78853798 C783.24627818 79.64055806 783.26951516 76.49269403 783.29469299 73.34477234 C783.36529495 64.39844572 783.42572624 55.4520744 783.47680664 46.50561523 C783.5085696 41.02506996 783.54982646 35.5446632 783.59700203 30.06422997 C783.61302398 27.97703724 783.62534465 25.88981272 783.63390923 23.80257607 C783.64604307 20.88948059 783.67018131 17.97671244 783.69702148 15.0637207 C783.69761063 14.20077896 783.69819977 13.33783722 783.69880676 12.44874573 C783.70852509 11.65401855 783.71824341 10.85929138 783.72825623 10.04048157 C783.73248816 9.3526978 783.7367201 8.66491404 783.74108028 7.95628834 C784.05514032 5.58338297 784.73244803 4.02769793 786 2 C789.48804095 -0.32536063 790.90140754 -0.33457898 795 0 C797.56880909 0.8562697 798.64674385 1.43965543 800.0926609 3.73320866 C801.18768537 6.46889148 801.25729693 8.57237524 801.26742554 11.5186615 C801.27595551 12.64128387 801.28448547 13.76390625 801.29327393 14.92054749 C801.29236755 16.1480925 801.29146118 17.37563751 801.29052734 18.64038086 C801.30060318 20.58503235 801.30060318 20.58503235 801.31088257 22.56896973 C801.32854932 26.12529632 801.33323857 29.68152664 801.33451414 33.23789287 C801.33593732 35.46456507 801.34021035 37.69121295 801.34550858 39.9178791 C801.36401971 47.70055818 801.37217891 55.48316878 801.37060547 63.26586914 C801.36940772 70.49466116 801.39043471 77.72315282 801.4220928 84.95186895 C801.44836348 91.17462075 801.45896809 97.39727523 801.45769465 103.62008196 C801.45718764 107.32893553 801.46272298 111.03752288 801.48405075 114.74632072 C801.50726066 118.8961066 801.49784684 123.04523478 801.48583984 127.19506836 C801.49707886 128.40439529 801.50831787 129.61372223 801.51989746 130.85969543 C801.4018297 147.01683635 795.30781459 159.92894765 784.41015625 171.6875 C775.30602172 180.4227474 764.79580775 187.53651769 754 194 C753.3620752 194.38478516 752.72415039 194.76957031 752.06689453 195.16601562 C731.59784681 207.37649955 709.39236266 216.38697038 686.8671875 224.02685547 C685.06990443 224.63686656 683.27517273 225.25450554 681.484375 225.88330078 C645.14782222 238.64117133 606.86158198 245.58186858 569 252 C567.62822746 252.23518979 566.25647972 252.47052427 564.88476562 252.70605469 C533.34865027 258.06107926 501.47871158 260.84606974 469.57574463 262.83856201 C467.06378237 262.99600236 464.55216108 263.15821554 462.04052734 263.32080078 C420.20766836 265.98354758 377.85875567 266.35742268 336 264 C335.24547546 263.95852844 334.49095093 263.91705688 333.71356201 263.87432861 C281.04406324 260.96288341 228.58846807 255.20403794 177 244 C175.32574951 243.63672607 175.32574951 243.63672607 173.61767578 243.26611328 C166.05442882 241.6071857 158.51983082 239.84547915 151 238 C149.98647461 237.7520166 148.97294922 237.5040332 147.92871094 237.24853516 C98.7725944 225.04182488 44.79563095 207.98269495 7 173 C6.28457031 172.36578125 5.56914062 171.7315625 4.83203125 171.078125 C-4.51617073 162.41091787 -10.98876588 150.2326515 -11.5146637 137.43386841 C-11.54118566 134.97964785 -11.54623656 132.52513132 -11.53344727 130.07080078 C-11.54052187 128.70784072 -11.5492733 127.3448885 -11.55955505 125.98194885 C-11.58187168 122.31489498 -11.57915376 118.64827619 -11.57023358 114.98118067 C-11.5650942 111.91169031 -11.57243897 108.84227961 -11.57970566 105.77279747 C-11.59664389 98.53433191 -11.59319543 91.29607756 -11.57641602 84.05761719 C-11.5594485 76.59837467 -11.57540589 69.1397154 -11.6076389 61.68053639 C-11.6343294 55.25986353 -11.64161387 48.83937232 -11.63312382 42.41864955 C-11.62819935 38.59052288 -11.63038572 34.76274807 -11.65091133 30.93466568 C-11.66926401 27.34085179 -11.66331648 23.74788044 -11.63871193 20.15411186 C-11.63131988 18.20974306 -11.64855638 16.2653294 -11.66653442 14.32102966 C-11.56293423 4.81945284 -11.56293423 4.81945284 -8.64805603 1.71310425 C-5.37285931 -0.4057155 -3.83003501 -0.71813156 0 0 Z " fill="#FBFAFB" transform="translate(243,394)"/>
<path d="M0 0 C0.66 0 1.32 0 2 0 C2.09308814 10.09299237 2.16396064 20.18588093 2.20724869 30.27921677 C2.22803526 34.96706159 2.25618762 39.65461055 2.30175781 44.34228516 C2.34553684 48.87458412 2.36920409 53.40660029 2.37950897 57.93909454 C2.38684327 59.65969538 2.40116387 61.3802825 2.42292023 63.10076141 C2.6343124 80.52630832 -1.11737463 93.95477965 -13.4375 106.9375 C-43.91901241 135.95002386 -105.95203442 169 -149 169 C-149 137.32 -149 105.64 -149 73 C-139.1 70.03 -129.2 67.06 -119 64 C-101.22517028 58.29613673 -84.0634601 51.55002837 -67 44 C-66.24541504 43.66742187 -65.49083008 43.33484375 -64.71337891 42.9921875 C-27.79944114 27.03630087 -27.79944114 27.03630087 0 0 Z " fill="#FBFBFB" transform="translate(1042,625)"/>
<path d="M0 0 C3.48551144 1.64248758 5.69110216 3.52615059 8.4375 6.25 C21.16066845 18.00362219 36.71738177 26.96753804 52 35 C52.61552734 35.32629395 53.23105469 35.65258789 53.86523438 35.98876953 C82.96345811 51.3056245 113.99876155 62.53383135 145.87817383 70.41845703 C148 71 148 71 150 72 C150 103.68 150 135.36 150 168 C140.26878942 166.05375788 131.1303245 164.04353533 121.75 161.0625 C120.66976562 160.72798828 119.58953125 160.39347656 118.4765625 160.04882812 C89.8373409 151.09475824 59.63000165 139.43788045 35 122 C34.03449219 121.31679688 33.06898438 120.63359375 32.07421875 119.9296875 C18.17697794 109.79370755 5.59073328 98.77219984 0 82 C-0.09110421 79.3682664 -0.12604036 76.76358818 -0.11352539 74.13208008 C-0.11367142 73.33184921 -0.11381744 72.53161835 -0.1139679 71.70713806 C-0.11327105 69.06124158 -0.10548929 66.41541544 -0.09765625 63.76953125 C-0.09579126 61.93535907 -0.09436774 60.1011864 -0.09336853 58.26701355 C-0.08954972 53.43863551 -0.07972484 48.61028754 -0.06866455 43.78192139 C-0.05843677 38.85526944 -0.05386798 33.92861263 -0.04882812 29.00195312 C-0.03810203 19.33462221 -0.02103321 9.6673136 0 0 Z " fill="#FCFBFC" transform="translate(232,626)"/>
<path d="M0 0 C0.09302537 10.24064815 0.16392925 20.48119439 0.20724869 30.72218037 C0.22804873 35.4784325 0.25622639 40.23439374 0.30175781 44.99047852 C0.3454879 49.58761101 0.36919402 54.1844652 0.37950897 58.78178978 C0.38685191 60.52833621 0.40118995 62.27486887 0.42292023 64.02129555 C0.63201488 81.53584493 -3.35965023 93.08307255 -15.6875 106.0625 C-30.04546669 119.7500558 -47.45987246 129.06693963 -65 138 C-66.15371094 138.59554687 -67.30742188 139.19109375 -68.49609375 139.8046875 C-82.72089302 146.81213686 -97.99987308 151.3413667 -113.01513672 156.33398438 C-114.84479297 156.94792069 -116.66878741 157.5786623 -118.4921875 158.2109375 C-144.03355705 167 -144.03355705 167 -150 167 C-150 135.32 -150 103.64 -150 71 C-134.16 66.545 -134.16 66.545 -118 62 C-76.05364612 48.01788204 -35.66078689 31.14493466 -2.49609375 1.25 C-1 0 -1 0 0 0 Z " fill="#FBFBFB" transform="translate(1043,759)"/>
<path d="M0 0 C3.49967745 2.30080446 6.68815425 4.51622833 9.6875 7.4375 C17.11977587 14.15537499 25.63742708 19.5248815 34 25 C34.64743164 25.42458496 35.29486328 25.84916992 35.96191406 26.28662109 C54.96876357 38.59094645 76.67055478 48.35800237 98.2890625 55.078125 C101 56 101 56 104.1953125 57.40698242 C107.91162916 59.01059478 111.71149868 60.24936762 115.5859375 61.41015625 C116.28715729 61.62312851 116.98837708 61.83610077 117.71084595 62.05552673 C119.1842437 62.50194542 120.6582429 62.94638345 122.1328125 63.38891602 C124.36368833 64.05910182 126.59208608 64.73707985 128.8203125 65.41601562 C130.26287925 65.8520312 131.70558328 66.28759289 133.1484375 66.72265625 C133.80186127 66.92166031 134.45528503 67.12066437 135.12850952 67.32569885 C140.07143755 68.80198596 144.92817371 69.87292749 150 71 C150 102.35 150 133.7 150 166 C144.40947855 165.30118482 139.61145067 164.51228003 134.25 163.0625 C132.33960938 162.55396484 132.33960938 162.55396484 130.390625 162.03515625 C127 161 127 161 125.046875 159.99609375 C122.60289799 158.80675379 120.11862661 158.27309569 117.484375 157.64746094 C112.07786216 156.23845229 106.79867513 154.38930314 101.5 152.625 C100.31535156 152.23828125 99.13070312 151.8515625 97.91015625 151.453125 C92.32595993 149.59795164 87.00165278 147.68268177 81.80737305 144.91235352 C79.90324632 143.95115919 77.9942793 143.21107852 75.98828125 142.48828125 C71.89626657 141.00780851 68.06070722 139.16326551 64.1875 137.1875 C63.49027832 136.83421631 62.79305664 136.48093262 62.07470703 136.11694336 C60.0463531 135.08452664 58.02233278 134.04415332 56 133 C55.01386719 132.49210938 54.02773438 131.98421875 53.01171875 131.4609375 C41.55602332 125.38517607 30.94531988 118.31857611 21 110 C19.96875 109.21625 18.9375 108.4325 17.875 107.625 C9.42576352 99.91047973 1.79126858 89.5319528 0 78 C-0.08728014 75.41438814 -0.12658892 72.85703938 -0.11352539 70.2722168 C-0.11367142 69.51070816 -0.11381744 68.74919952 -0.1139679 67.96461487 C-0.11327387 65.45945338 -0.1055054 62.95436718 -0.09765625 60.44921875 C-0.09579026 58.70758607 -0.09436721 56.96595286 -0.09336853 55.22431946 C-0.08955762 50.64914491 -0.07973953 46.0740023 -0.06866455 41.49884033 C-0.05841975 36.82670524 -0.05386434 32.15456497 -0.04882812 27.48242188 C-0.03811596 18.32160058 -0.02105668 9.16080295 0 0 Z " fill="#FCFBFB" transform="translate(232,759)"/>
<path d="M0 0 C4.5258808 1.41007558 8.77021778 3.19650404 13.0390625 5.23828125 C13.70872543 5.55504318 14.37838837 5.87180511 15.06834412 6.19816589 C17.25533649 7.23326758 19.44013711 8.27291209 21.625 9.3125 C24.71932655 10.77887808 27.81474725 12.24293982 30.91015625 13.70703125 C32.07341682 14.25781845 32.07341682 14.25781845 33.26017761 14.81973267 C40.17421438 18.09052287 47.11612289 21.29846314 54.0625 24.5 C64.97730623 29.5417809 75.7994126 34.7581973 86.60598755 40.0267334 C96.19389158 44.69921809 105.81605504 49.27960106 115.5 53.75 C120.00039381 55.83248337 124.50035237 57.91590488 129 60 C130.18352051 60.54736816 131.36704102 61.09473633 132.58642578 61.65869141 C136.08382019 63.28209255 139.57391148 64.92027626 143.0625 66.5625 C144.12210938 67.05137695 145.18171875 67.54025391 146.2734375 68.04394531 C147.24667969 68.50510742 148.21992187 68.96626953 149.22265625 69.44140625 C150.07609619 69.84045166 150.92953613 70.23949707 151.80883789 70.65063477 C154.36408193 72.22420956 155.56643708 73.35594248 157 76 C157.40405273 79.14453125 157.40405273 79.14453125 157.43359375 82.8125 C157.4388356 83.46323486 157.44407745 84.11396973 157.44947815 84.78442383 C157.45588282 86.15607276 157.45458142 87.52777674 157.44604492 88.89941406 C157.43752508 90.99383521 157.46632474 93.08553497 157.49804688 95.1796875 C157.49965892 96.51562419 157.49908128 97.85156568 157.49609375 99.1875 C157.49794678 100.39792969 157.4997998 101.60835938 157.50170898 102.85546875 C156.88402068 106.72691664 155.9428438 107.48668509 153 110 C150.96228483 111.19815025 148.8756632 112.31470572 146.76193237 113.3730011 C145.82787258 113.84471097 145.82787258 113.84471097 144.8749429 114.32595032 C142.79520279 115.37377397 140.70995434 116.41011141 138.62451172 117.4465332 C137.12931609 118.19684195 135.63446155 118.94783073 134.1399231 119.69944763 C130.08602808 121.73550637 126.02714351 123.76142312 121.96706533 125.78511834 C117.72150665 127.90283454 113.47985687 130.02835459 109.23757935 132.15263367 C102.11682151 135.71664988 94.9927185 139.27390934 87.86669922 142.82739258 C79.61843097 146.94062758 71.37600627 151.0653916 63.13649929 155.19614536 C56.0667706 158.7400714 48.99395728 162.27778045 41.91850483 165.81026524 C37.69032648 167.92123049 33.46327017 170.0343654 29.23897934 172.15310097 C25.27158432 174.14255561 21.3003883 176.12420319 17.32606125 178.0997715 C15.86452381 178.8278855 14.40435619 179.55875627 12.94564056 180.29250717 C10.96205039 181.28972694 8.97385098 182.27706135 6.98410034 183.26191711 C5.87023893 183.81809377 4.75637753 184.37427042 3.60876274 184.94730091 C2.74787104 185.29469161 1.88697933 185.64208231 1 186 C0.34 185.67 -0.32 185.34 -1 185 C-1.12360058 178.8070403 -1.21434054 172.61479841 -1.2746582 166.42089844 C-1.29980212 164.31400039 -1.33392207 162.20718957 -1.37719727 160.10058594 C-1.43785368 157.0720468 -1.46621083 154.0446607 -1.48828125 151.015625 C-1.52699089 149.60292328 -1.52699089 149.60292328 -1.56648254 148.16168213 C-1.569271 141.65960482 -1.569271 141.65960482 1.06933594 138.60229492 C4.46487381 136.74583749 7.86500589 134.96649027 11.37890625 133.34765625 C12.09446686 133.01148285 12.81002747 132.67530945 13.54727173 132.32894897 C15.88273364 131.23370329 18.22254337 130.14810509 20.5625 129.0625 C22.1992511 128.29689615 23.83572288 127.53069489 25.47192383 126.76391602 C36.12662611 121.77688924 46.80730233 116.84559306 57.48754883 111.91357422 C72.08801754 105.144469 86.53966102 98.06218482 101 91 C101 90.34 101 89.68 101 89 C95.89963467 86.58271391 90.79912221 84.1657386 85.69848633 81.74902344 C83.97156006 80.93074477 82.24467067 80.11238829 80.51782227 79.29394531 C78.00286955 78.10199683 75.48779064 76.91031509 72.97265625 75.71875 C72.13901047 75.32371277 71.30536469 74.92867554 70.44645691 74.52166748 C65.6270832 72.23932198 60.80287783 69.96762396 55.97460938 67.7041626 C49.79219945 64.80478651 43.63679371 61.87077661 37.5625 58.75 C32.75804511 56.31536132 27.94873311 54.11756669 22.91796875 52.1953125 C18.55103518 50.40644815 14.27763869 48.42902648 10 46.4375 C9.14946045 46.04892822 8.2989209 45.66035645 7.42260742 45.26000977 C6.62314697 44.88416748 5.82368652 44.5083252 5 44.12109375 C4.278125 43.7852124 3.55625 43.44933105 2.8125 43.10327148 C1 42 1 42 -1 39 C-1.18411715 36.11000836 -1.25601565 33.31868975 -1.23046875 30.4296875 C-1.23001053 29.59285431 -1.22955231 28.75602112 -1.2290802 27.89382935 C-1.22606112 26.12695902 -1.2181851 24.36009129 -1.20581055 22.59326172 C-1.18752348 19.87848566 -1.1853011 17.16405004 -1.18554688 14.44921875 C-1.18063279 12.73437203 -1.17480494 11.01952763 -1.16796875 9.3046875 C-1.16685593 8.48805634 -1.1657431 7.67142517 -1.16459656 6.83004761 C-1.11605733 1.11605733 -1.11605733 1.11605733 0 0 Z " fill="#FBFBFB" transform="translate(448,330)"/>
<path d="M0 0 C1.13658264 -0.00445668 1.13658264 -0.00445668 2.29612654 -0.0090034 C4.8486891 -0.01771195 7.40120487 -0.01920046 9.95378113 -0.02069092 C11.77845358 -0.02531758 13.60312506 -0.03034203 15.42779541 -0.03573608 C20.39479607 -0.04887701 25.3617832 -0.05530837 30.32879853 -0.05974674 C33.43012503 -0.06267483 36.53144781 -0.06677914 39.63277245 -0.07125092 C49.33065487 -0.0849305 59.02852882 -0.09459481 68.72642022 -0.09845281 C79.93123378 -0.1029344 91.1359254 -0.1204851 102.34070188 -0.1494534 C110.99467909 -0.17105233 119.64862195 -0.18115614 128.30262583 -0.18249393 C133.47443014 -0.18354327 138.6461199 -0.18947845 143.81789589 -0.20731354 C148.68273737 -0.22376322 153.54737782 -0.22596483 158.41223717 -0.21717453 C160.19847018 -0.21640248 161.98471386 -0.22076892 163.7709198 -0.23063278 C166.20844191 -0.24330458 168.64524689 -0.23750177 171.08276367 -0.22705078 C171.79055161 -0.23510719 172.49833954 -0.24316359 173.2275756 -0.25146413 C177.55574717 -0.20802745 180.28572397 0.49184708 183.7318573 3.14044189 C185.32577432 6.32827593 184.93723437 9.78569473 184.97013855 13.28887939 C184.9782103 14.09781647 184.98628204 14.90675354 184.99459839 15.74020386 C185.0084372 17.45334734 185.01916027 19.16651837 185.02702332 20.87969971 C185.04424519 23.49839513 185.08813209 26.11583083 185.13224792 28.73419189 C185.14237419 30.39824511 185.1508905 32.06230905 185.15763855 33.72637939 C185.17514664 34.50878998 185.19265472 35.29120056 185.21069336 36.09732056 C185.19635026 39.69593168 185.06287355 41.71163794 182.83024597 44.6038208 C179.02683953 47.3890029 176.02611541 47.28404859 171.45698547 47.27415466 C170.69855815 47.27642022 169.94013082 47.27868578 169.15872085 47.28101999 C166.60382009 47.28737701 164.04897215 47.28652953 161.49406433 47.28570557 C159.66776968 47.28869601 157.84147567 47.29209827 156.0151825 47.29588318 C151.04411314 47.30473937 146.07306098 47.30706198 141.1019845 47.30769897 C136.9567318 47.30864684 132.81148314 47.31232376 128.66623199 47.31587106 C118.8884631 47.32402188 109.11070342 47.32645473 99.33293152 47.32574463 C89.23665331 47.32514376 79.14042851 47.33569599 69.04416382 47.35148829 C60.38510674 47.3645514 51.72606714 47.36992904 43.06700027 47.36928922 C37.89134399 47.36903386 32.71573515 47.37190604 27.54008865 47.38246727 C22.6728191 47.39212751 17.80564253 47.39224171 12.93836975 47.38495064 C11.15010823 47.38390219 9.36184099 47.38628305 7.57358932 47.3923111 C5.13584799 47.39999737 2.69843048 47.39540866 0.26069641 47.38768005 C-0.80535476 47.3953954 -0.80535476 47.3953954 -1.89294231 47.40326661 C-5.50019518 47.37792603 -8.27629916 47.25993071 -11.2681427 45.14044189 C-13.79176331 41.35501098 -13.59157668 38.28362158 -13.6040802 33.89434814 C-13.610737 33.08682602 -13.6173938 32.27930389 -13.62425232 31.4473114 C-13.63437286 29.74014564 -13.63906952 28.03294036 -13.63874817 26.32574463 C-13.64312118 23.71578736 -13.67944397 21.10752179 -13.71736145 18.49786377 C-13.72322983 16.83836434 -13.72719908 15.17885688 -13.7290802 13.51934814 C-13.74345123 12.74007462 -13.75782227 11.96080109 -13.77262878 11.15791321 C-13.74241849 7.57003271 -13.59251797 5.55978366 -11.36433411 2.67926025 C-7.56679216 -0.10852299 -4.56555794 -0.00553686 0 0 Z " fill="#FBFBFB" transform="translate(626.2681427001953,479.85955810546875)"/>
<path d="M0 0 C0.03425331 1.23789276 0.03425331 1.23789276 0.06919861 2.50079346 C0.2863228 10.32614167 0.50665917 18.15139171 0.73049068 25.97655106 C0.84541932 29.99831846 0.95916034 34.02011174 1.07006836 38.04199219 C1.17739787 41.93244653 1.2880022 45.82279592 1.40075874 49.71309662 C1.44295439 51.18800399 1.48402348 52.66294408 1.5238781 54.13791656 C1.73535565 61.93621505 2.07088908 69.69399363 2.77610779 77.46554565 C3.27473741 83.11002073 3.38895085 88.7755927 3.5625 94.4375 C3.58367889 95.10555664 3.60485779 95.77361328 3.62667847 96.46191406 C4.1702465 113.97133883 4.09622344 131.48437385 4 149 C-7.49892263 142.35433968 -7.49892263 142.35433968 -12.16015625 139.40234375 C-24.45127837 131.6208242 -37.26829479 125.01010979 -50.23950195 118.45117188 C-52.08788538 117.47949141 -53.90890808 116.45399742 -55.69897461 115.37866211 C-58.16253752 113.90261545 -60.53443843 112.98753779 -63.25 112.0625 C-66.66742176 110.86276683 -69.97232787 109.60201267 -73.25 108.0625 C-78.4622968 105.6727466 -83.89876485 103.9893886 -89.3515625 102.24609375 C-93 101 -93 101 -96.50390625 99.4765625 C-101.21775637 97.48568502 -106.04971367 96.27164856 -110.98828125 94.96484375 C-114 94 -114 94 -116 92 C-108.95760887 85.95196642 -101.8438831 80.03681102 -94.51513672 74.33862305 C-89.77493327 70.64017256 -85.12948821 66.83581711 -80.5 63 C-74.81147287 58.28917852 -69.07221604 53.66035709 -63.24707031 49.11987305 C-58.70341334 45.57152432 -54.21932723 41.95392238 -49.75 38.3125 C-49.0681665 37.75699463 -48.38633301 37.20148926 -47.68383789 36.62915039 C-46.37482366 35.56251667 -45.06582243 34.49586698 -43.75683594 33.42919922 C-38.82274117 29.4152761 -33.85292805 25.44711524 -28.84375 21.52734375 C-28.27962402 21.08575928 -27.71549805 20.6441748 -27.13427734 20.18920898 C-25.96318112 19.27277662 -24.79163271 18.35692179 -23.61962891 17.44165039 C-20.25232261 14.8021757 -16.9205338 12.12545915 -13.6171875 9.40625 C-12.88967285 8.8083667 -12.1621582 8.2104834 -11.41259766 7.59448242 C-9.9894751 6.42182815 -8.56977204 5.24500956 -7.15380859 4.0637207 C-6.18822021 3.26840942 -6.18822021 3.26840942 -5.203125 2.45703125 C-4.63239258 1.98241455 -4.06166016 1.50779785 -3.47363281 1.01879883 C-2 0 -2 0 0 0 Z " fill="#FBFAFB" transform="translate(968,178)"/>
<path d="M0 0 C3.21097565 2.11338637 6.38786315 4.20706989 9.375 6.62890625 C9.96023438 7.10070312 10.54546875 7.5725 11.1484375 8.05859375 C11.75945312 8.55488281 12.37046875 9.05117187 13 9.5625 C14.33290341 10.63725216 15.66624664 11.71145905 17 12.78515625 C17.66902344 13.32414551 18.33804687 13.86313477 19.02734375 14.41845703 C22.00028604 16.801962 24.99892004 19.15209123 28 21.5 C33.49164504 25.80101296 38.94498229 30.14779327 44.38574219 34.51293945 C48.65234848 37.93231964 52.94388366 41.31806153 57.25 44.6875 C62.22830437 48.58673591 67.15067103 52.54588954 72.03515625 56.5625 C81.28982316 64.17107991 90.58956769 71.71669914 100.03100586 79.0925293 C105.42297839 83.31182403 110.72260687 87.63807303 116 92 C113.69080057 94.30919943 112.35784545 94.62690021 109.2421875 95.48828125 C108.24058594 95.77533936 107.23898437 96.06239746 106.20703125 96.3581543 C105.10746094 96.67308838 104.00789063 96.98802246 102.875 97.3125 C66.39401189 108.19589243 31.3518323 124.9049554 0.1171875 146.671875 C-2 148 -2 148 -4 148 C-4.13760519 131.49161071 -3.9511422 115.00334076 -3.5625 98.5 C-3.54285187 97.63046692 -3.52320374 96.76093384 -3.50296021 95.86505127 C-3.27026258 85.71464913 -2.90256802 75.58343085 -2.36329651 65.44471741 C-1.8542083 55.63407953 -1.65802232 45.81802853 -1.44775391 35.99731445 C-1.18574695 23.98225249 -0.6949973 11.9979813 0 0 Z " fill="#FBFBFB" transform="translate(309,178)"/>
<path d="M0 0 C0.33 0 0.66 0 1 0 C1 171.27 1 342.54 1 519 C1.66 519 2.32 519 3 519 C3 521.64 3 524.28 3 527 C0.21529777 524.61129261 0.01943437 524.19468499 -0.37259549 520.26750118 C-0.38688832 518.66084872 -0.38434772 517.05399841 -0.36914349 515.44735432 C-0.37260502 514.55918497 -0.37606655 513.67101563 -0.37963298 512.75593206 C-0.3876315 509.75251213 -0.37406725 506.74956587 -0.36076355 503.74617004 C-0.36207066 501.58218433 -0.36469534 499.41819908 -0.36853105 497.25421637 C-0.37526646 491.28650951 -0.36320143 485.31896294 -0.34819686 479.35127652 C-0.33528467 472.92386625 -0.33962254 466.4964656 -0.34190369 460.06904602 C-0.34347948 448.92605716 -0.33414269 437.78312167 -0.31719017 426.64014626 C-0.29945186 414.95076054 -0.28789492 403.26139577 -0.28463173 391.57199669 C-0.28442551 390.8457572 -0.28421929 390.1195177 -0.28400682 389.37127095 C-0.28299185 385.68321431 -0.28208769 381.99515765 -0.2812262 378.30710097 C-0.27492143 352.17029588 -0.25469953 326.03351818 -0.22631836 299.89672852 C-0.19877462 274.50187323 -0.1775191 249.10702543 -0.16479492 223.7121582 C-0.16440034 222.92966748 -0.16400576 222.14717676 -0.16359923 221.34097421 C-0.15964374 213.48303156 -0.15581629 205.62508886 -0.15208265 197.7671461 C-0.14447358 181.7589635 -0.13600982 165.75078138 -0.12702942 149.74259949 C-0.12661755 149.00653516 -0.12620568 148.27047084 -0.12578133 147.51210153 C-0.09816953 98.34138938 -0.05057049 49.17069333 0 0 Z " fill="#40484F" transform="translate(1086,368)"/>
<path d="M0 0 C0 32.01 0 64.02 0 97 C-0.66 97 -1.32 97 -2 97 C-2 65.32 -2 33.64 -2 1 C-5.3 1.33 -8.6 1.66 -12 2 C-5.33333333 -1.33333333 -5.33333333 -1.33333333 0 0 Z " fill="#262A30" transform="translate(857,837)"/>
<path d="M0 0 C2.92941624 0.60221746 5.02668493 1.47848756 7.50488281 3.14208984 C8.50808563 3.80946671 8.50808563 3.80946671 9.53155518 4.49032593 C10.24817322 4.97562775 10.96479126 5.46092957 11.703125 5.9609375 C12.45857605 6.46613922 13.2140271 6.97134094 13.99237061 7.49185181 C16.41522985 9.11420045 18.8325764 10.744566 21.25 12.375 C22.83038953 13.43410073 24.41111562 14.49269943 25.9921875 15.55078125 C30.67116638 18.68624281 35.33811421 21.83919148 40 25 C40.75666962 25.51250305 41.51333923 26.0250061 42.29293823 26.55303955 C44.47258062 28.03165743 46.64900834 29.51487187 48.82421875 31 C49.46832703 31.43710297 50.1124353 31.87420593 50.77606201 32.32455444 C54.54622098 34.90926137 58.07609164 37.66006736 61.5625 40.625 C67.86908948 45.35012056 74.35374124 45.1651014 82 45 C82 45.33 82 45.66 82 46 C74.43471383 47.37926758 68.51442198 47.99560407 61.76953125 43.87890625 C59.75812343 42.47630028 57.77220703 41.03647872 55.8125 39.5625 C54.82314453 38.86189453 53.83378906 38.16128906 52.81445312 37.43945312 C49.8486913 35.32826576 46.92221183 33.17095444 44 31 C37.92911833 26.5473106 31.85542096 22.13426691 25.5625 18 C24.28383373 17.15367671 23.00518819 16.3073221 21.7265625 15.4609375 C20.79118652 14.8436377 20.79118652 14.8436377 19.83691406 14.21386719 C17.03116885 12.35977825 14.23462733 10.49206514 11.4375 8.625 C10.52871094 8.01914063 9.61992187 7.41328125 8.68359375 6.7890625 C7.79800781 6.19867188 6.91242188 5.60828125 6 5 C4.89785156 4.28585938 3.79570312 3.57171875 2.66015625 2.8359375 C1.78230469 2.23007813 0.90445312 1.62421875 0 1 C0 0.67 0 0.34 0 0 Z " fill="#26292E" transform="translate(443,208)"/>
<path d="M0 0 C13.47526557 -0.02331269 26.95052622 -0.04101059 40.42580795 -0.05181217 C46.68492095 -0.05699999 52.94402002 -0.06402186 59.203125 -0.07543945 C65.25913884 -0.0864157 71.31513939 -0.0923076 77.37116241 -0.09487724 C79.66565408 -0.09670523 81.96014514 -0.10027385 84.25463104 -0.10573006 C98.2046421 -0.13754143 112.07501371 0.14117606 126 1 C126 1.33 126 1.66 126 2 C116.64072209 2.72492332 107.39355936 3.14256667 98 3 C98 2.67 98 2.34 98 2 C65.66 1.67 33.32 1.34 0 1 C0 0.67 0 0.34 0 0 Z " fill="#515356" transform="translate(592,248)"/>
<path d="M0 0 C-16.34765625 10.8984375 -16.34765625 10.8984375 -18.13438416 12.0894928 C-19.33304013 12.88866159 -20.53157597 13.68801059 -21.72999573 14.48753357 C-24.5320403 16.3566189 -27.33602527 18.22252967 -30.14428711 20.08227539 C-38.24499314 25.45344598 -46.20718515 31.00895278 -54.14648438 36.61523438 C-55.12037109 37.29779297 -56.09425781 37.98035156 -57.09765625 38.68359375 C-58.40488647 39.60483032 -58.40488647 39.60483032 -59.73852539 40.54467773 C-62 42 -62 42 -65 43 C-63.87823185 39.63469555 -63.34962145 39.27478221 -60.51953125 37.38623047 C-59.77904541 36.88608429 -59.03855957 36.38593811 -58.27563477 35.87063599 C-57.46280029 35.33324799 -56.64996582 34.79585999 -55.8125 34.2421875 C-54.96679443 33.67394257 -54.12108887 33.10569763 -53.24975586 32.52023315 C-51.43610857 31.30192972 -49.62035848 30.08675196 -47.80273438 28.87438965 C-45.04203759 27.02811355 -42.29270869 25.16614696 -39.546875 23.29785156 C-34.97022237 20.18414863 -30.38194462 17.0882641 -25.78710938 14.00146484 C-23.89770927 12.72939676 -22.01107004 11.45322008 -20.12695312 10.17333984 C-17.36193242 8.29586247 -14.588345 6.4317358 -11.8125 4.5703125 C-10.96888916 3.9934671 -10.12527832 3.4166217 -9.25610352 2.82229614 C-8.08712524 2.04425125 -8.08712524 2.04425125 -6.89453125 1.25048828 C-6.21237549 0.79006134 -5.53021973 0.3296344 -4.82739258 -0.14474487 C-3 -1 -3 -1 0 0 Z " fill="#2C2F32" transform="translate(852,197)"/>
<path d="M0 0 C0.33 0 0.66 0 1 0 C1 2.97 1 5.94 1 9 C1.66 9 2.32 9 3 9 C3.20638953 51.43368668 3.20638953 51.43368668 2 68 C1.67 68 1.34 68 1 68 C0.505 60.575 0.505 60.575 0 53 C-0.33 53 -0.66 53 -1 53 C-1 45.41 -1 37.82 -1 30 C-0.67 30 -0.34 30 0 30 C0.33 31.98 0.66 33.96 1 36 C1 29.4 1 22.8 1 16 C0.67 16 0.34 16 0 16 C0 10.72 0 5.44 0 0 Z " fill="#3F4449" transform="translate(305,188)"/>
<path d="M0 0 C3.54456878 1.35173222 6.84840523 2.91768406 10.18359375 4.72265625 C23.83424044 12.01905168 37.53882466 18.47616606 52 24 C52 24.66 52 25.32 52 26 C50.51849242 25.59173486 49.03993475 25.17276672 47.5625 24.75 C46.73878906 24.51796875 45.91507812 24.2859375 45.06640625 24.046875 C36.97011312 21.28279021 29.27889016 17.29219532 21.5625 13.625 C20.58990234 13.16867187 19.61730469 12.71234375 18.61523438 12.2421875 C5.34112419 5.92878306 5.34112419 5.92878306 0 2 C0 1.34 0 0.68 0 0 Z " fill="#36393E" transform="translate(237,950)"/>
<path d="M0 0 C0.33 0 0.66 0 1 0 C3.5127194 16.05212973 4.1469007 31.77563345 4 48 C3.67 48 3.34 48 3 48 C2.56249433 43.73664687 2.1358933 39.47236607 1.71826172 35.20703125 C1.57555909 33.76404275 1.43016318 32.32131739 1.28173828 30.87890625 C0.22142259 20.5498446 -0.18864252 10.38232511 0 0 Z " fill="#282B2F" transform="translate(1012,243)"/>
<path d="M0 0 C1.529463 3.058926 0.79022403 6.10855947 0.4765625 9.421875 C0.41093109 10.15948059 0.34529968 10.89708618 0.27767944 11.65704346 C0.13740322 13.2208292 -0.00569097 14.78436431 -0.15136719 16.34765625 C-0.37276978 18.72604218 -0.58560063 21.10507022 -0.796875 23.484375 C-0.93438789 25.00525435 -1.07239318 26.52608927 -1.2109375 28.046875 C-1.27453461 28.75334167 -1.33813171 29.45980835 -1.40365601 30.18768311 C-1.77640742 34.16080822 -2.29282837 38.07263079 -3 42 C-3.33 42 -3.66 42 -4 42 C-4.10478558 32.90694034 -4.04236492 23.83544064 -3.625 14.75 C-3.59414307 13.95295654 -3.56328613 13.15591309 -3.53149414 12.3347168 C-3.05518929 3.05518929 -3.05518929 3.05518929 0 0 Z " fill="#2B2F35" transform="translate(274,134)"/>
<path d="M0 0 C0.33 0 0.66 0 1 0 C1.33893581 3.83285925 1.67012787 7.66635091 2 11.5 C2.09539063 12.57765625 2.19078125 13.6553125 2.2890625 14.765625 C2.78162326 20.53562244 3.11244203 26.20923553 3 32 C1.68 32 0.36 32 -1 32 C-1 27.71 -1 23.42 -1 19 C-1.33 19 -1.66 19 -2 19 C-2 15.7 -2 12.4 -2 9 C-1.34 9 -0.68 9 0 9 C0 6.03 0 3.06 0 0 Z " fill="#45494D" transform="translate(1011,217)"/>
<path d="M0 0 C1.08796875 0.00515625 2.1759375 0.0103125 3.296875 0.015625 C4.99457031 0.0465625 4.99457031 0.0465625 6.7265625 0.078125 C8.41265625 0.08585938 8.41265625 0.08585938 10.1328125 0.09375 C15.3321526 0.14291634 20.22801718 0.37893283 25.3515625 1.328125 C25.3515625 1.658125 25.3515625 1.988125 25.3515625 2.328125 C21.2785222 3.30497865 17.4833555 3.44357944 13.30078125 3.42578125 C12.64197464 3.4243663 11.98316803 3.42295135 11.30439758 3.42149353 C9.21590488 3.41593 7.12752239 3.40338447 5.0390625 3.390625 C3.61653801 3.38560528 2.19401184 3.3810432 0.77148438 3.37695312 C-2.70185827 3.36597257 -6.17513711 3.34873335 -9.6484375 3.328125 C-6.4061588 0.41555326 -4.31809524 -0.04083638 0 0 Z " fill="#454A50" transform="translate(602.6484375,612.671875)"/>
<path d="M0 0 C1.14662109 0.11794922 1.14662109 0.11794922 2.31640625 0.23828125 C4.4375 0.6875 4.4375 0.6875 7.4375 2.6875 C9.49459596 2.92805468 9.49459596 2.92805468 11.625 2.8125 C12.883125 2.77125 14.14125 2.73 15.4375 2.6875 C15.1075 3.3475 14.7775 4.0075 14.4375 4.6875 C15.0975 5.3475 15.7575 6.0075 16.4375 6.6875 C10.72879167 6.01932164 5.09240487 5.14915521 -0.5625 4.125 C-1.33722656 3.98642578 -2.11195313 3.84785156 -2.91015625 3.70507812 C-4.79460355 3.36773879 -6.6786007 3.02788635 -8.5625 2.6875 C-8.5625 2.0275 -8.5625 1.3675 -8.5625 0.6875 C-5.53281651 -0.23037677 -3.13978581 -0.35594865 0 0 Z " fill="#41464B" transform="translate(415.5625,1007.3125)"/>
<path d="M0 0 C9.24 0 18.48 0 28 0 C28 0.33 28 0.66 28 1 C13.29626286 2.96283499 -1.1777261 3.23599456 -16 3 C-16 2.67 -16 2.34 -16 2 C-8.08 1.505 -8.08 1.505 0 1 C0 0.67 0 0.34 0 0 Z " fill="#4B5056" transform="translate(589,1027)"/>
<path d="M0 0 C0.73605469 0.05671875 1.47210938 0.1134375 2.23046875 0.171875 C4.02952468 0.31206118 5.82741939 0.46701786 7.625 0.625 C7.625 1.285 7.625 1.945 7.625 2.625 C8.945 3.285 10.265 3.945 11.625 4.625 C-6.23149203 3.66144647 -6.23149203 3.66144647 -14.375 2.625 C-14.375 2.295 -14.375 1.965 -14.375 1.625 C-9.29127302 -0.47584617 -5.34122593 -0.48293182 0 0 Z " fill="#454A4F" transform="translate(504.375,1020.375)"/>
<path d="M0 0 C0.33 0 0.66 0 1 0 C1.33 2.97 1.66 5.94 2 9 C2.33 9 2.66 9 3 9 C3.10152799 15.7685324 3.03026944 22.30324864 2 29 C1.67 29 1.34 29 1 29 C1 26.69 1 24.38 1 22 C0.34 22 -0.32 22 -1 22 C-0.67 14.74 -0.34 7.48 0 0 Z " fill="#43484D" transform="translate(258,306)"/>
<path d="M0 0 C0.33 0 0.66 0 1 0 C1 2.97 1 5.94 1 9 C1.66 9 2.32 9 3 9 C3 21.87 3 34.74 3 48 C2.67 48 2.34 48 2 48 C1.67 37.44 1.34 26.88 1 16 C0.67 16 0.34 16 0 16 C0 10.72 0 5.44 0 0 Z " fill="#5D6064" transform="translate(305,188)"/>
<path d="M0 0 C7.92 0 15.84 0 24 0 C19.7668874 3.17483445 19.09411312 3.36878745 14.140625 3.29296875 C13.02558594 3.28330078 11.91054688 3.27363281 10.76171875 3.26367188 C9.02341797 3.2259668 9.02341797 3.2259668 7.25 3.1875 C5.48849609 3.16719727 5.48849609 3.16719727 3.69140625 3.14648438 C0.79380702 3.1111478 -2.10286427 3.06180979 -5 3 C-5 2.67 -5 2.34 -5 2 C-3.35 1.67 -1.7 1.34 0 1 C0 0.67 0 0.34 0 0 Z " fill="#52575D" transform="translate(591,724)"/>
<path d="M0 0 C4.20891862 0.4926101 5.98010284 1.51329149 8.6875 4.75 C9.55955078 5.76320313 9.55955078 5.76320313 10.44921875 6.796875 C13.83624092 11.60866468 14.23414749 15.47310917 14.125 21.3125 C14.10695313 22.56675781 14.08890625 23.82101563 14.0703125 25.11328125 C14.04710937 26.06589844 14.02390625 27.01851562 14 28 C13.67 28 13.34 28 13 28 C12.82984375 26.84242188 12.6596875 25.68484375 12.484375 24.4921875 C12.24035779 22.95300202 11.99552264 21.41394606 11.75 19.875 C11.64042969 19.11445313 11.53085937 18.35390625 11.41796875 17.5703125 C10.59094098 12.5210903 9.29114086 9.07094476 6 5 C4.04148656 3.60644236 2.04872887 2.25717453 0 1 C0 0.67 0 0.34 0 0 Z " fill="#2B2E34" transform="translate(991,122)"/>
<path d="M0 0 C12.70428397 -0.13809004 25.31729149 0.25863082 38 1 C38 1.33 38 1.66 38 2 C28.64072209 2.72492332 19.39355936 3.14256667 10 3 C10 2.67 10 2.34 10 2 C6.7 1.67 3.4 1.34 0 1 C0 0.67 0 0.34 0 0 Z " fill="#626569" transform="translate(680,248)"/>
<path d="M0 0 C0.33 0 0.66 0 1 0 C1.33 4.95 1.66 9.9 2 15 C2.33 15 2.66 15 3 15 C3.10808032 22.09727428 2.93854006 28.96094956 2 36 C1.67 36 1.34 36 1 36 C-0.46739522 24.05121032 -0.0947251 12.01405773 0 0 Z " fill="#56595C" transform="translate(969,222)"/>
<path d="M0 0 C1.48831242 0.00667405 2.97660807 0.01863442 4.46484375 0.03515625 C5.22345703 0.03966797 5.98207031 0.04417969 6.76367188 0.04882812 C8.64326246 0.06064945 10.52281274 0.07858547 12.40234375 0.09765625 C4.97223997 5.05105877 -6.90037014 3.1936999 -15.59765625 3.09765625 C-15.59765625 2.76765625 -15.59765625 2.43765625 -15.59765625 2.09765625 C-14.81519531 2.03707031 -14.03273438 1.97648437 -13.2265625 1.9140625 C-12.21464844 1.83027344 -11.20273437 1.74648437 -10.16015625 1.66015625 C-9.15082031 1.57894531 -8.14148438 1.49773437 -7.1015625 1.4140625 C-3.63407129 0.97589278 -3.90636541 0.10603598 0 0 Z " fill="#474C52" transform="translate(571.59765625,1025.90234375)"/>
<path d="M0 0 C8.74218041 1.56110365 16.75983375 4.78481857 25 8 C21.58675793 9.17197267 19.64196725 8.8256692 16.26953125 7.63671875 C14.94211914 7.17168945 14.94211914 7.17168945 13.58789062 6.69726562 C12.67201172 6.36404297 11.75613281 6.03082031 10.8125 5.6875 C9.88501953 5.36587891 8.95753906 5.04425781 8.00195312 4.71289062 C1.13287508 2.26575017 1.13287508 2.26575017 0 0 Z " fill="#262A2F" transform="translate(324,777)"/>
<path d="M0 0 C3.90835971 1.70094873 7.10767134 4.26441433 10.4375 6.875 C10.99759766 7.30941406 11.55769531 7.74382813 12.13476562 8.19140625 C15.44664371 10.76516448 18.73067818 13.37232078 22 16 C16.78909391 16 13.07098106 12.01814113 9 9 C8.1234375 8.35546875 7.246875 7.7109375 6.34375 7.046875 C1.65740392 3.51728523 1.65740392 3.51728523 0 2 C0 1.34 0 0.68 0 0 Z " fill="#2A2D33" transform="translate(250,867)"/>
<path d="M0 0 C2.90907818 1.45453909 3.2863278 3.50214336 4.625 6.4375 C7.65035848 12.69040675 11.45075231 17.7810661 16 23 C15.01 23 14.02 23 13 23 C7.65260722 17.09127869 0 8.27347728 0 0 Z " fill="#26292E" transform="translate(232,841)"/>
<path d="M0 0 C0.33 0 0.66 0 1 0 C1.06058594 0.71027344 1.12117188 1.42054688 1.18359375 2.15234375 C1.26738281 3.07144531 1.35117187 3.99054688 1.4375 4.9375 C1.51871094 5.85402344 1.59992188 6.77054688 1.68359375 7.71484375 C1.76044976 9.96159732 1.76044976 9.96159732 3 11 C3.43041732 17.38030379 2.81578949 23.67763143 2 30 C1.67 30 1.34 30 1 30 C0.32807613 19.9811352 -0.15723924 10.04584053 0 0 Z " fill="#474D53" transform="translate(265,214)"/>
<path d="M0 0 C7.59 0 15.18 0 23 0 C19.70718011 3.29281989 18.70808888 3.38528746 14.24414062 3.41015625 C13.52419922 3.39855469 12.80425781 3.38695312 12.0625 3.375 C11.34642578 3.38660156 10.63035156 3.39820313 9.89257812 3.41015625 C5.16921073 3.383891 3.95914059 2.96935544 0 0 Z " fill="#494E55" transform="translate(666,724)"/>
<path d="M0 0 C0 0.33 0 0.66 0 1 C-8.3969326 2.37292913 -16.48627215 3.31274919 -25 3 C-25 2.67 -25 2.34 -25 2 C-16.59628191 -0.21462689 -8.6274658 -0.20705918 0 0 Z " fill="#2E3237" transform="translate(772,817)"/>
<path d="M0 0 C7.09727428 -0.10808032 13.96094956 0.06145994 21 1 C21 1.33 21 1.66 21 2 C19.35 2.33 17.7 2.66 16 3 C16 3.33 16 3.66 16 4 C12.37 4 8.74 4 5 4 C5.33 3.34 5.66 2.68 6 2 C3.03 1.505 3.03 1.505 0 1 C0 0.67 0 0.34 0 0 Z " fill="#53585C" transform="translate(746,251)"/>
<path d="M0 0 C-2.39964086 2.77853152 -4.62647051 3.65825532 -8 5 C-9.95093708 6.01627762 -11.88846506 7.05866738 -13.8125 8.125 C-14.78832031 8.66382813 -15.76414062 9.20265625 -16.76953125 9.7578125 C-17.50558594 10.16773438 -18.24164062 10.57765625 -19 11 C-17.56619323 6.6985797 -14.34930125 5.44443029 -10.625 3.25 C-9.93921875 2.82589844 -9.2534375 2.40179688 -8.546875 1.96484375 C-3.37413436 -1.12471145 -3.37413436 -1.12471145 0 0 Z " fill="#2A2E31" transform="translate(915,157)"/>
<path d="M0 0 C2.52113092 -0.05447822 5.0410585 -0.09389852 7.5625 -0.125 C8.26697266 -0.14175781 8.97144531 -0.15851562 9.69726562 -0.17578125 C14.51891822 -0.22022044 18.42297438 0.47231996 23 2 C23 2.33 23 2.66 23 3 C19.91684615 3.08733513 16.83401173 3.14050127 13.75 3.1875 C12.87730469 3.21263672 12.00460937 3.23777344 11.10546875 3.26367188 C4.58401668 3.33834499 4.58401668 3.33834499 1.390625 1.48828125 C0.93171875 0.99714844 0.4728125 0.50601563 0 0 Z " fill="#474D52" transform="translate(682,955)"/>
<path d="M0 0 C0.66 0.33 1.32 0.66 2 1 C-0.73929378 2.54074107 -3.49287839 4.05392858 -6.25 5.5625 C-7.02730469 6.00013672 -7.80460937 6.43777344 -8.60546875 6.88867188 C-9.73662109 7.50258789 -9.73662109 7.50258789 -10.890625 8.12890625 C-11.58188477 8.51119385 -12.27314453 8.89348145 -12.98535156 9.28735352 C-15.40070408 10.14174203 -16.62077693 9.84205836 -19 9 C-18 7 -18 7 -16.25 6.2890625 C-15.13625 5.96035156 -15.13625 5.96035156 -14 5.625 C-9.7557189 4.30757515 -5.84016681 2.6153193 -1.84765625 0.671875 C-0.93306641 0.33929688 -0.93306641 0.33929688 0 0 Z " fill="#2C2F34" transform="translate(510,438)"/>
<path d="M0 0 C0.66 0.33 1.32 0.66 2 1 C0.59106853 2.63171123 -0.82745958 4.25513945 -2.25 5.875 C-3.03890625 6.77992188 -3.8278125 7.68484375 -4.640625 8.6171875 C-6.74691403 10.74439993 -8.25651526 11.90512306 -11 13 C-9.63422544 8.71506993 -7.79318655 6.56854295 -4.375 3.6875 C-3.55773437 2.99011719 -2.74046875 2.29273438 -1.8984375 1.57421875 C-0.95871094 0.79498047 -0.95871094 0.79498047 0 0 Z " fill="#34393E" transform="translate(205,316)"/>
<path d="M0 0 C7.03482474 -0.23668569 13.1834265 0.2120463 20 2 C20 2.33 20 2.66 20 3 C15.05 3 10.1 3 5 3 C5 2.67 5 2.34 5 2 C3.35 1.67 1.7 1.34 0 1 C0 0.67 0 0.34 0 0 Z " fill="#41474C" transform="translate(531,251)"/>
<path d="M0 0 C7.42857143 -0.28571429 7.42857143 -0.28571429 11 2 C9 4 9 4 7.01171875 4.23046875 C2.89428074 4.15434805 -0.9855214 4.03599448 -5 3 C-5 2.67 -5 2.34 -5 2 C-3.35 1.67 -1.7 1.34 0 1 C0 0.67 0 0.34 0 0 Z " fill="#54595E" transform="translate(504,948)"/>
<path d="M0 0 C4.29 0 8.58 0 13 0 C13.33 0.66 13.66 1.32 14 2 C10.68929162 3.00109515 7.69915231 3.10356134 4.25 3.0625 C3.26515625 3.05347656 2.2803125 3.04445313 1.265625 3.03515625 C0.51796875 3.02355469 -0.2296875 3.01195312 -1 3 C-0.67 2.01 -0.34 1.02 0 0 Z " fill="#41474D" transform="translate(563,855)"/>
<path d="M0 0 C4.68738665 0.90723613 9.34193744 1.9547267 14 3 C14 3.66 14 4.32 14 5 C15.32 5.66 16.64 6.32 18 7 C11.68878497 5.9007105 5.93661416 4.41862058 0 2 C0 1.34 0 0.68 0 0 Z " fill="#2D3035" transform="translate(318,809)"/>
<path d="M0 0 C-2.61970793 1.53064939 -5.24501643 3.04969748 -7.875 4.5625 C-8.99455078 5.21895508 -8.99455078 5.21895508 -10.13671875 5.88867188 C-10.85214844 6.29794922 -11.56757812 6.70722656 -12.3046875 7.12890625 C-13.2944458 7.70233765 -13.2944458 7.70233765 -14.30419922 8.28735352 C-14.86381348 8.52252686 -15.42342773 8.7577002 -16 9 C-16.66 8.67 -17.32 8.34 -18 8 C-4.2745098 -1.4248366 -4.2745098 -1.4248366 0 0 Z " fill="#292D30" transform="translate(956,133)"/>
<path d="M0 0 C1.36511719 0.43119141 1.36511719 0.43119141 2.7578125 0.87109375 C3.45648438 1.09925781 4.15515625 1.32742188 4.875 1.5625 C3.885 3.0475 3.885 3.0475 2.875 4.5625 C-0.425 3.5725 -3.725 2.5825 -7.125 1.5625 C-7.125 0.9025 -7.125 0.2425 -7.125 -0.4375 C-4.30685434 -1.84657283 -2.95222796 -0.94622691 0 0 Z " fill="#43484D" transform="translate(301.125,977.4375)"/>
<path d="M0 0 C4.29 0 8.58 0 13 0 C13.33 0.66 13.66 1.32 14 2 C10.71480525 3.09506492 8.26336585 3.09960608 4.8125 3.0625 C3.18248047 3.04896484 3.18248047 3.04896484 1.51953125 3.03515625 C0.68808594 3.02355469 -0.14335938 3.01195312 -1 3 C-0.67 2.01 -0.34 1.02 0 0 Z " fill="#474C52" transform="translate(553,722)"/>
<path d="M0 0 C0.33 0 0.66 0 1 0 C1.33 5.94 1.66 11.88 2 18 C1.34 16.68 0.68 15.36 0 14 C-0.66 14.66 -1.32 15.32 -2 16 C-2 13.36 -2 10.72 -2 8 C-1.34 8 -0.68 8 0 8 C0 5.36 0 2.72 0 0 Z " fill="#52565A" transform="translate(1009,193)"/>
<path d="M0 0 C0.66 0.33 1.32 0.66 2 1 C-0.11997834 2.19733988 -2.24513676 3.38298713 -4.375 4.5625 C-4.97828125 4.90474609 -5.5815625 5.24699219 -6.203125 5.59960938 C-7.76978241 6.46127095 -9.38290862 7.23718183 -11 8 C-13 7 -13 7 -14 5 C-10.91862883 3.97287628 -7.83726907 2.9467995 -4.75 1.9375 C-2.0803694 1.09630299 -2.0803694 1.09630299 0 0 Z " fill="#43484D" transform="translate(353,300)"/>
<path d="M0 0 C-0.33 0.66 -0.66 1.32 -1 2 C-0.34 2.66 0.32 3.32 1 4 C-4.28 3.34 -9.56 2.68 -15 2 C-15 1.67 -15 1.34 -15 1 C-9.94997778 -0.03590199 -5.12583611 -0.10251672 0 0 Z " fill="#4D5156" transform="translate(449,1013)"/>
<path d="M0 0 C0.66 0 1.32 0 2 0 C3 1 4 2 5 3 C7.03232242 4.19599068 7.03232242 4.19599068 9.1875 5.1875 C9.90292969 5.53167969 10.61835937 5.87585938 11.35546875 6.23046875 C12.16951172 6.61138672 12.16951172 6.61138672 13 7 C13 7.66 13 8.32 13 9 C8.0276578 7.50829734 3.58154261 5.39542583 -1 3 C-0.67 2.01 -0.34 1.02 0 0 Z " fill="#373A3E" transform="translate(561,380)"/>
<path d="M0 0 C4.46182436 1.31074365 7.99618757 3.07066011 11.875 5.625 C12.84179688 6.25664062 13.80859375 6.88828125 14.8046875 7.5390625 C15.52914063 8.02117187 16.25359375 8.50328125 17 9 C16.01 9.33 15.02 9.66 14 10 C11.48517667 8.62401983 9.17967123 7.22052564 6.8125 5.625 C6.15830078 5.19960937 5.50410156 4.77421875 4.83007812 4.3359375 C3.19626062 3.25921939 1.59493398 2.13351979 0 1 C0 0.67 0 0.34 0 0 Z " fill="#2D2F35" transform="translate(364,157)"/>
<path d="M0 0 C4.95 0 9.9 0 15 0 C10.65352612 3.25985541 10.2519968 3.34252339 5.25 2.6875 C4.26515625 2.56761719 3.2803125 2.44773437 2.265625 2.32421875 C1.51796875 2.21722656 0.7703125 2.11023438 0 2 C0 1.34 0 0.68 0 0 Z " fill="#31363A" transform="translate(768,948)"/>
<path d="M0 0 C4.29 0 8.58 0 13 0 C13 0.66 13 1.32 13 2 C14.65 2 16.3 2 18 2 C18 2.33 18 2.66 18 3 C13.71 3 9.42 3 5 3 C5 2.67 5 2.34 5 2 C3.35 1.67 1.7 1.34 0 1 C0 0.67 0 0.34 0 0 Z " fill="#41464C" transform="translate(516,252)"/>
<path d="M0 0 C1.04474487 0.08640747 1.04474487 0.08640747 2.1105957 0.17456055 C2.86791992 0.2293457 3.62524414 0.28413086 4.40551758 0.34057617 C5.19120117 0.4134082 5.97688477 0.48624023 6.78637695 0.5612793 C7.58366211 0.62250977 8.38094727 0.68374023 9.20239258 0.74682617 C11.16904648 0.89991899 13.13416685 1.07248639 15.09887695 1.2487793 C15.09887695 1.5787793 15.09887695 1.9087793 15.09887695 2.2487793 C8.49887695 2.5787793 1.89887695 2.9087793 -4.90112305 3.2487793 C-1.90112305 0.2487793 -1.90112305 0.2487793 0 0 Z " fill="#61656A" transform="translate(718.901123046875,1025.751220703125)"/>
<path d="M0 0 C-0.639375 0.474375 -1.27875 0.94875 -1.9375 1.4375 C-3.88293306 2.83738726 -3.88293306 2.83738726 -5 4 C-11.38873239 4.47323944 -11.38873239 4.47323944 -13.9375 2.5 C-14.4634375 1.7575 -14.4634375 1.7575 -15 1 C-9.91913204 0.15318867 -5.15171623 -0.09038099 0 0 Z " fill="#565A5F" transform="translate(748,951)"/>
<path d="M0 0 C0 0.99 0 1.98 0 3 C-2.3125 4.75 -2.3125 4.75 -5 6 C-5.99 5.67 -6.98 5.34 -8 5 C-8.33 4.34 -8.66 3.68 -9 3 C-3.375 0 -3.375 0 0 0 Z " fill="#474B50" transform="translate(226,305)"/>
<path d="M0 0 C0.33 0 0.66 0 1 0 C1 2.97 1 5.94 1 9 C1.66 9 2.32 9 3 9 C3 11.97 3 14.94 3 18 C0.12563833 15.12563833 0.03237445 12.99972292 -0.09765625 8.984375 C-0.08605469 7.91703125 -0.07445312 6.8496875 -0.0625 5.75 C-0.04896484 4.13351562 -0.04896484 4.13351562 -0.03515625 2.484375 C-0.02355469 1.66453125 -0.01195312 0.8446875 0 0 Z " fill="#43484D" transform="translate(260,278)"/>
<path d="M0 0 C0.66 0.33 1.32 0.66 2 1 C0.576875 2.3303125 0.576875 2.3303125 -0.875 3.6875 C-3.46748883 6.26164575 -4.9525021 8.43850715 -6 12 C-6.99 11.34 -7.98 10.68 -9 10 C-7.51559252 5.2993763 -7.51559252 5.2993763 -5.0625 3.875 C-4.381875 3.58625 -3.70125 3.2975 -3 3 C-1.29078411 1.4587688 -1.29078411 1.4587688 0 0 Z " fill="#41484D" transform="translate(282,125)"/>
<path d="M0 0 C0 0.66 0 1.32 0 2 C0.99 2.33 1.98 2.66 3 3 C-1.95 2.67 -6.9 2.34 -12 2 C-12 1.67 -12 1.34 -12 1 C-7.9472484 0.01751476 -4.16138263 -0.08159574 0 0 Z " fill="#444A51" transform="translate(840,1012)"/>
<path d="M0 0 C0.33 0.66 0.66 1.32 1 2 C-1.31 2 -3.62 2 -6 2 C-5.34 2.66 -4.68 3.32 -4 4 C-5.65 4 -7.3 4 -9 4 C-9 3.34 -9 2.68 -9 2 C-10.32 1.67 -11.64 1.34 -13 1 C-8.59085217 -0.10228696 -4.51617599 -0.07654536 0 0 Z " fill="#484D51" transform="translate(803,812)"/>
<path d="M0 0 C4.8333472 -0.08333357 9.23692563 0.04738513 14 1 C14 1.33 14 1.66 14 2 C9.94153944 2.98386923 6.17153059 3.3148325 2 3 C1.34 2.01 0.68 1.02 0 0 Z " fill="#55585C" transform="translate(523,818)"/>
<path d="M0 0 C0.66 0.33 1.32 0.66 2 1 C-3.445 4.96 -3.445 4.96 -9 9 C-9 8.01 -9 7.02 -9 6 C-7.03125 4.39453125 -7.03125 4.39453125 -4.5 2.8125 C-3.6646875 2.28269531 -2.829375 1.75289062 -1.96875 1.20703125 C-0.99421875 0.60955078 -0.99421875 0.60955078 0 0 Z " fill="#2B2E31" transform="translate(784,240)"/>
<path d="M0 0 C-1 2 -1 2 -4.3125 3.1875 C-7.57562063 3.90649268 -8.99282882 4.20286847 -12 3 C-4.71428571 -0.42857143 -4.71428571 -0.42857143 0 0 Z " fill="#272C30" transform="translate(922,621)"/>
<path d="M0 0 C-3.63 1.98 -7.26 3.96 -11 6 C-8.25017144 0.50034289 -6.14670303 -1.53667576 0 0 Z " fill="#2E3237" transform="translate(219,310)"/>
<path d="M0 0 C0.99 0.33 1.98 0.66 3 1 C1.72992786 1.9593419 0.45891081 2.91743294 -0.8125 3.875 C-1.87404297 4.67550781 -1.87404297 4.67550781 -2.95703125 5.4921875 C-4.60456297 6.70814781 -6.29624211 7.86416141 -8 9 C-6.99023354 5.36484074 -6.05356282 4.04330611 -3.0625 1.625 C-2.051875 1.08875 -1.04125 0.5525 0 0 Z " fill="#242629" transform="translate(284,122)"/>
<path d="M0 0 C0.66 0.33 1.32 0.66 2 1 C0.38007835 1.86375896 -1.24611861 2.71575854 -2.875 3.5625 C-4.23238281 4.27599609 -4.23238281 4.27599609 -5.6171875 5.00390625 C-6.40351562 5.33261719 -7.18984375 5.66132812 -8 6 C-8.66 5.67 -9.32 5.34 -10 5 C-10 4.34 -10 3.68 -10 3 C-6.97265625 2.26757812 -6.97265625 2.26757812 -3.9453125 1.53515625 C-1.9414343 1.05153008 -1.9414343 1.05153008 0 0 Z " fill="#41484D" transform="translate(978,599)"/>
<path d="M0 0 C1.45903258 0.30921884 2.91720722 0.62248799 4.375 0.9375 C5.18710937 1.11152344 5.99921875 1.28554688 6.8359375 1.46484375 C9 2 9 2 11 3 C11 3.66 11 4.32 11 5 C9.35153231 4.55123384 7.70626545 4.09069512 6.0625 3.625 C5.14597656 3.36976563 4.22945312 3.11453125 3.28515625 2.8515625 C1 2 1 2 0 0 Z " fill="#22252C" transform="translate(883,282)"/>
<path d="M0 0 C1.98 0 3.96 0 6 0 C6 0.66 6 1.32 6 2 C8.64 2 11.28 2 14 2 C14 2.33 14 2.66 14 3 C12.41753293 3.08153933 10.83383727 3.13943557 9.25 3.1875 C8.36828125 3.22230469 7.4865625 3.25710938 6.578125 3.29296875 C3.55328417 2.94923684 2.24416398 1.99772541 0 0 Z " fill="#494E53" transform="translate(753,1022)"/>
<path d="M0 0 C4.92127034 -0.16682272 8.50343896 -0.24828052 13 2 C13 2.33 13 2.66 13 3 C10.36 3 7.72 3 5 3 C5 2.67 5 2.34 5 2 C3.35 1.67 1.7 1.34 0 1 C0 0.67 0 0.34 0 0 Z " fill="#43484D" transform="translate(739,819)"/>
<path d="M0 0 C0 0.99 0 1.98 0 3 C-2.64 3 -5.28 3 -8 3 C-8 2.34 -8 1.68 -8 1 C-5.07175348 0.02391783 -3.04386724 -0.08226668 0 0 Z " fill="#33383D" transform="translate(929,785)"/>
<path d="M0 0 C0.99 0.33 1.98 0.66 3 1 C-0.07999946 4.67230705 -2.2482602 5.56802365 -7 6 C-2.25 1.125 -2.25 1.125 0 0 Z " fill="#262A2E" transform="translate(866,185)"/>
<path d="M0 0 C0.99 0.33 1.98 0.66 3 1 C2 3 2 3 -0.06640625 3.8515625 C-1.30197266 4.23441406 -1.30197266 4.23441406 -2.5625 4.625 C-3.38878906 4.88539063 -4.21507812 5.14578125 -5.06640625 5.4140625 C-5.70449219 5.60742188 -6.34257813 5.80078125 -7 6 C-2.25 1.125 -2.25 1.125 0 0 Z " fill="#292C30" transform="translate(877,178)"/>
<path d="M0 0 C1.98 0 3.96 0 6 0 C6 0.66 6 1.32 6 2 C7.65 2 9.3 2 11 2 C11 2.33 11 2.66 11 3 C8.03 3 5.06 3 2 3 C2 2.34 2 1.68 2 1 C1.34 0.67 0.68 0.34 0 0 Z " fill="#44484E" transform="translate(774,1020)"/>
<path d="M0 0 C1.27875 -0.061875 2.5575 -0.12375 3.875 -0.1875 C4.95394531 -0.23970703 4.95394531 -0.23970703 6.0546875 -0.29296875 C6.69664062 -0.19628906 7.33859375 -0.09960938 8 0 C8.66 0.99 9.32 1.98 10 3 C3.47692308 3.36923077 3.47692308 3.36923077 1.0625 1.5 C0.5365625 0.7575 0.5365625 0.7575 0 0 Z " fill="#484D52" transform="translate(752,950)"/>
<path d="M0 0 C4.67312888 0.44933932 7.38775335 1.01909734 11 4 C9.35232753 3.71890887 7.70686855 3.42481474 6.0625 3.125 C4.68771484 2.88136719 4.68771484 2.88136719 3.28515625 2.6328125 C2.53105469 2.42398438 1.77695312 2.21515625 1 2 C0.67 1.34 0.34 0.68 0 0 Z " fill="#282C31" transform="translate(342,915)"/>
<path d="M0 0 C-6.625 3 -6.625 3 -10 3 C-10 2.34 -10 1.68 -10 1 C-3.71428571 -1.42857143 -3.71428571 -1.42857143 0 0 Z " fill="#2A2E32" transform="translate(949,779)"/>
<path d="M0 0 C0 4.31618166 -2.13270348 5.92789659 -5 9 C-5.66 9 -6.32 9 -7 9 C-5.44499019 5.18315774 -2.96404505 2.80804268 0 0 Z " fill="#2A2C31" transform="translate(1034,557)"/>
<path d="M0 0 C-0.33 0.66 -0.66 1.32 -1 2 C-4.3 1.67 -7.6 1.34 -11 1 C-6.46780033 -1.26609984 -4.82227075 -0.92735976 0 0 Z " fill="#4B4F55" transform="translate(398,1005)"/>
<path d="M0 0 C0.66 0.33 1.32 0.66 2 1 C-1.96 4.465 -1.96 4.465 -6 8 C-6 5 -6 5 -4.6875 3.61328125 C-3.125 2.40885417 -1.5625 1.20442708 0 0 Z " fill="#292C30" transform="translate(205,316)"/>
<path d="M0 0 C1.4540625 0.0309375 1.4540625 0.0309375 2.9375 0.0625 C3.2675 1.0525 3.5975 2.0425 3.9375 3.0625 C1.0625 3.1875 1.0625 3.1875 -2.0625 3.0625 C-2.7225 2.4025 -3.3825 1.7425 -4.0625 1.0625 C-3.0625 0.0625 -3.0625 0.0625 0 0 Z " fill="#F0F1F1" transform="translate(764.0625,945.9375)"/>
<path d="M0 0 C2.3431213 0.25561323 4.67843403 0.59270772 7 1 C7.33 1.66 7.66 2.32 8 3 C6.02 3.33 4.04 3.66 2 4 C2.33 3.01 2.66 2.02 3 1 C2.01 0.67 1.02 0.34 0 0 Z " fill="#4A4D52" transform="translate(430,936)"/>
<path d="M0 0 C1.11375 0.2475 1.11375 0.2475 2.25 0.5 C5.19006578 1.11925696 5.19006578 1.11925696 9 1 C9 1.99 9 2.98 9 4 C6.03 3.01 3.06 2.02 0 1 C0 0.67 0 0.34 0 0 Z " fill="#454A4F" transform="translate(304,902)"/>
<path d="M0 0 C3.625 -0.1875 3.625 -0.1875 7 0 C6.01 1.485 6.01 1.485 5 3 C1.375 3.1875 1.375 3.1875 -2 3 C-1.34 2.01 -0.68 1.02 0 0 Z " fill="#474C52" transform="translate(518,851)"/>
<path d="M0 0 C0 0.33 0 0.66 0 1 C-5.16044765 2.512545 -8.65998179 3.33500455 -14 2 C-14 1.67 -14 1.34 -14 1 C-9.23692563 0.04738513 -4.8333472 -0.08333357 0 0 Z " fill="#BABCBD" transform="translate(797,849)"/>
<path d="M0 0 C1.98 0 3.96 0 6 0 C5.67 0.99 5.34 1.98 5 3 C2.9375 3.6875 2.9375 3.6875 1 4 C0.67 2.68 0.34 1.36 0 0 Z " fill="#343A3F" transform="translate(910,789)"/>
<path d="M0 0 C-1.485 1.485 -1.485 1.485 -3 3 C-3.99 2.67 -4.98 2.34 -6 2 C-6.33 1.34 -6.66 0.68 -7 0 C-4.3333581 -1.33332095 -2.83319697 -0.67102033 0 0 Z " fill="#474C50" transform="translate(379,289)"/>
<path d="M0 0 C0.66 0 1.32 0 2 0 C2.33 0.99 2.66 1.98 3 3 C1.03533587 4.06775224 -0.96855359 5.06553465 -3 6 C-3.66 5.67 -4.32 5.34 -5 5 C-3.33333333 3.33333333 -1.66666667 1.66666667 0 0 Z " fill="#444A4F" transform="translate(969,123)"/>
</svg>
