<?xml version="1.0" encoding="UTF-8"?>
<svg version="1.1" xmlns="http://www.w3.org/2000/svg" width="508" height="491">
<path d="M0 0 C0.85464844 0.07863281 1.70929688 0.15726563 2.58984375 0.23828125 C5.0791575 0.69052624 6.87401027 1.44346291 9.0625 2.6875 C9.0625 3.3475 9.0625 4.0075 9.0625 4.6875 C9.60261719 4.78417969 10.14273438 4.88085938 10.69921875 4.98046875 C13.73992801 5.89016855 16.15392506 7.36875225 18.875 9 C19.92816406 9.62648438 20.98132813 10.25296875 22.06640625 10.8984375 C23.05511719 11.48882812 24.04382813 12.07921875 25.0625 12.6875 C27.38980017 14.03181696 29.72568794 15.35976587 32.0625 16.6875 C32.0625 17.3475 32.0625 18.0075 32.0625 18.6875 C32.90941406 18.92855469 33.75632812 19.16960937 34.62890625 19.41796875 C38.44011611 20.82711915 41.64030751 22.76295998 45 25 C45.61464111 25.40154297 46.22928223 25.80308594 46.86254883 26.21679688 C50.04296512 28.30585663 53.17415454 30.4463391 56.25 32.6875 C58.94635086 34.81104642 58.94635086 34.81104642 62.0625 35.6875 C62.0625 36.3475 62.0625 37.0075 62.0625 37.6875 C64.0425 38.3475 66.0225 39.0075 68.0625 39.6875 C68.0625 40.3475 68.0625 41.0075 68.0625 41.6875 C68.78566406 41.94402344 69.50882812 42.20054688 70.25390625 42.46484375 C74.10029022 44.13927794 77.14263438 46.59644554 80.46484375 49.12890625 C86.55245868 52.78147521 93.43078819 51.6059366 100.25 51.25 C112.68963578 50.70088491 125.11185335 50.56873061 137.5625 50.5625 C138.48919495 50.56042542 139.41588989 50.55835083 140.3706665 50.55621338 C149.4198039 50.54022306 158.44054977 50.56299684 167.47265625 51.16015625 C168.70113281 51.23572754 169.92960938 51.31129883 171.1953125 51.38916016 C173.38940607 51.54003533 175.58168134 51.72289643 177.76953125 51.94677734 C184.82105071 52.4428819 188.42473679 50.79911637 193.88647461 46.31860352 C196.02906641 44.71256112 197.45052915 44.10914513 200.0625 43.6875 C200.0625 43.0275 200.0625 42.3675 200.0625 41.6875 C201.92578125 40.1796875 201.92578125 40.1796875 204.375 38.5625 C205.17550781 38.02367187 205.97601563 37.48484375 206.80078125 36.9296875 C209.0625 35.6875 209.0625 35.6875 212.0625 35.6875 C212.0625 35.0275 212.0625 34.3675 212.0625 33.6875 C214.6171875 31.9609375 214.6171875 31.9609375 217.9375 30.0625 C219.02804687 29.43085937 220.11859375 28.79921875 221.2421875 28.1484375 C224.0625 26.6875 224.0625 26.6875 226.0625 26.6875 C226.0625 26.0275 226.0625 25.3675 226.0625 24.6875 C228.30078125 23.20703125 228.30078125 23.20703125 231.375 21.5 C235.47110928 19.18126679 239.49065416 16.81456749 243.4375 14.25 C247.66868247 11.53345821 251.95637889 8.94663965 256.3125 6.4375 C257.99085938 5.47070312 257.99085938 5.47070312 259.703125 4.484375 C269.74661856 -0.88772621 269.74661856 -0.88772621 274.8125 -0.25 C275.54984375 -0.17652344 276.2871875 -0.10304687 277.046875 -0.02734375 C279.84123238 0.96367834 280.5318347 2.15239236 282.0625 4.6875 C282.72045898 7.74438477 282.72045898 7.74438477 283.12109375 11.56640625 C283.19758652 12.29074356 283.27407928 13.01508087 283.35289001 13.7613678 C284.543733 25.68650409 285.2260063 37.66427322 285.99578857 49.62207031 C286.29636241 54.28131966 286.60252263 58.94020114 286.90977478 63.59901428 C287.07206634 66.06424578 287.23247258 68.52960241 287.39064026 70.99510193 C287.82063202 77.57544484 288.34980708 84.13150428 289.0625 90.6875 C290.3825 90.6875 291.7025 90.6875 293.0625 90.6875 C293.3925 84.4175 293.7225 78.1475 294.0625 71.6875 C302.7583109 73.13680182 308.26870785 77.27635742 313.96875 83.87890625 C316.78390278 88.53396245 316.2061416 94.17735929 316.19621277 99.44186401 C316.19847833 100.32324449 316.20074388 101.20462496 316.20307809 102.11271393 C316.20940788 105.0658786 316.20858938 108.01899726 316.20776367 110.97216797 C316.21075579 113.08960021 316.21415844 115.20703191 316.21794128 117.32446289 C316.22677984 123.0765224 316.22911933 128.82856704 316.22975707 134.58063269 C316.23070647 139.38187954 316.23438511 144.18312292 316.23792917 148.98436844 C316.24607306 160.31135809 316.24851345 171.63833979 316.24780273 182.96533203 C316.24720184 194.65154632 316.25775611 206.33771447 316.2735464 218.02391708 C316.28661926 228.05631823 316.29198674 238.08870429 316.29134732 248.1211139 C316.29109228 254.11339129 316.29394728 260.10562767 316.30452538 266.09789658 C316.31420213 271.73345731 316.31428839 277.36893779 316.30700874 283.00450134 C316.3059624 285.07209007 316.30832871 287.13968378 316.3143692 289.20726395 C316.32208499 292.03132668 316.31744697 294.85511196 316.30973816 297.6791687 C316.31488172 298.49581304 316.32002529 299.31245739 316.32532471 300.15384853 C316.28158804 307.41287269 314.50785802 313.26660551 311.0625 319.6875 C310.4025 319.6875 309.7425 319.6875 309.0625 319.6875 C308.70478516 320.56148438 308.70478516 320.56148438 308.33984375 321.453125 C306.79924268 324.14799904 305.08030644 325.55066352 302.625 327.4375 C301.84253906 328.05109375 301.06007813 328.6646875 300.25390625 329.296875 C298.0625 330.6875 298.0625 330.6875 295.0625 330.6875 C295.0625 331.3475 295.0625 332.0075 295.0625 332.6875 C282.31807818 339.07297451 269.72466049 344.60745791 256.0625 348.6875 C254.886875 349.05359375 253.71125 349.4196875 252.5 349.796875 C208.96980401 362.89623954 163.15250631 364.20569631 118.0625 363.6875 C116.91604004 363.67493164 115.76958008 363.66236328 114.58837891 363.64941406 C67.9573937 362.94386573 16.35729834 355.2585699 -24.9375 332.6875 C-24.9375 332.0275 -24.9375 331.3675 -24.9375 330.6875 C-26.29875 330.2853125 -26.29875 330.2853125 -27.6875 329.875 C-30.66741834 328.78618368 -32.62340359 327.82358899 -34.9375 325.6875 C-34.9375 325.0275 -34.9375 324.3675 -34.9375 323.6875 C-36.2575 323.0275 -37.5775 322.3675 -38.9375 321.6875 C-38.9375 321.0275 -38.9375 320.3675 -38.9375 319.6875 C-39.5975 319.6875 -40.2575 319.6875 -40.9375 319.6875 C-45.46224274 312.38952784 -46.08723187 306.27678941 -46.07121277 297.80615234 C-46.07347833 296.92321188 -46.07574388 296.04027142 -46.07807809 295.13057518 C-46.08439769 292.17818257 -46.08359004 289.22583611 -46.08276367 286.2734375 C-46.08575637 284.15423524 -46.08915916 282.03503352 -46.09294128 279.91583252 C-46.10177264 274.16389937 -46.10411899 268.41198109 -46.10475707 262.66004181 C-46.1057069 257.85865052 -46.10938592 253.05726269 -46.11292917 248.25587273 C-46.12106989 236.93034566 -46.12351369 225.60482653 -46.12280273 214.27929688 C-46.12220153 202.5924738 -46.13276273 190.90569683 -46.1485464 179.21888542 C-46.16161446 169.18563049 -46.16698696 159.15239065 -46.16634732 149.11912727 C-46.16609219 143.12633773 -46.16895221 137.13358918 -46.17952538 131.14080811 C-46.18919437 125.50687877 -46.18929375 119.87302974 -46.18200874 114.2390976 C-46.18096152 112.17108798 -46.18333392 110.1030734 -46.1893692 108.03507233 C-46.19707236 105.21290256 -46.19245541 102.39101131 -46.18473816 99.56884766 C-46.18988172 98.74997259 -46.19502529 97.93109753 -46.20032471 97.08740807 C-46.15391803 89.41155342 -44.27295473 84.27578133 -39.078125 78.58984375 C-34.88137296 74.86024841 -29.63843848 71.6875 -23.9375 71.6875 C-23.4425 80.1025 -23.4425 80.1025 -22.9375 88.6875 C-21.2875 89.3475 -19.6375 90.0075 -17.9375 90.6875 C-17.89262451 89.80006104 -17.84774902 88.91262207 -17.80151367 87.99829102 C-16.87361563 69.97996698 -15.73918341 52.01388409 -13.9909668 34.05493164 C-13.22530522 26.19550298 -13.22530522 26.19550298 -12.69580078 18.31787109 C-12.65753677 17.59335251 -12.61927277 16.86883392 -12.57984924 16.12236023 C-12.4784004 14.09524634 -12.38934044 12.06752347 -12.30102539 10.03979492 C-11.97249089 7.0101729 -11.53226372 5.23533544 -9.9375 2.6875 C-9.2775 2.6875 -8.6175 2.6875 -7.9375 2.6875 C-7.9375 2.0275 -7.9375 1.3675 -7.9375 0.6875 C-4.82938934 -0.34853689 -3.20675549 -0.32308664 0 0 Z M5.0625 25.6875 C4.16981183 32.04133931 3.75484229 38.34074255 3.5 44.75 C3.4575415 45.78189453 3.41508301 46.81378906 3.37133789 47.87695312 C2.95930932 58.81353436 2.96215335 69.74508339 3.0625 80.6875 C6.13995908 79.47284783 9.12426804 78.21102768 12.0625 76.6875 C12.0625 76.0275 12.0625 75.3675 12.0625 74.6875 C12.64950684 74.5531958 13.23651367 74.4188916 13.84130859 74.28051758 C17.27796769 73.3629923 20.4505331 71.82704433 23.6875 70.375 C40.57645483 62.90125091 40.57645483 62.90125091 49.0625 60.6875 C45.72408302 57.25836517 42.2850225 54.13125061 38.5625 51.125 C37.6446875 50.38121094 36.726875 49.63742188 35.78125 48.87109375 C34.8840625 48.15050781 33.986875 47.42992188 33.0625 46.6875 C31.71671875 45.56021484 31.71671875 45.56021484 30.34375 44.41015625 C28.27292553 42.48662652 28.27292553 42.48662652 26.0625 42.6875 C26.0625 42.0275 26.0625 41.3675 26.0625 40.6875 C24.34752228 39.09923778 24.34752228 39.09923778 22.1875 37.5625 C21.46820313 37.02367187 20.74890625 36.48484375 20.0078125 35.9296875 C18.16623994 34.50810368 18.16623994 34.50810368 16.0625 34.6875 C16.0625 34.0275 16.0625 33.3675 16.0625 32.6875 C13.85195058 30.86843701 13.85195058 30.86843701 11.125 29.0625 C10.20847656 28.43085937 9.29195312 27.79921875 8.34765625 27.1484375 C6.37411883 25.59772584 6.37411883 25.59772584 5.0625 25.6875 Z M257.9375 30.0625 C257.37417969 30.475 256.81085938 30.8875 256.23046875 31.3125 C254.80073057 32.38566909 253.42656654 33.53200632 252.0625 34.6875 C252.0625 35.3475 252.0625 36.0075 252.0625 36.6875 C251.52625 36.935 250.99 37.1825 250.4375 37.4375 C247.4801018 38.99402537 244.76525949 40.72185673 242.0625 42.6875 C242.0625 43.3475 242.0625 44.0075 242.0625 44.6875 C241.53785156 44.90535156 241.01320313 45.12320313 240.47265625 45.34765625 C237.12582339 47.20821326 234.39152518 49.63028705 231.5 52.125 C230.92314453 52.61548828 230.34628906 53.10597656 229.75195312 53.61132812 C227.09160175 55.88505404 224.51494766 58.19217898 222.0625 60.6875 C222.58457031 60.85765625 223.10664063 61.0278125 223.64453125 61.203125 C238.78419732 66.18781365 252.60796626 72.07659841 266.0625 80.6875 C266.7225 80.6875 267.3825 80.6875 268.0625 80.6875 C267.94416959 74.30106827 267.81936019 67.91478597 267.69018555 61.52856445 C267.64704946 59.35899682 267.60536074 57.18939988 267.56518555 55.01977539 C267.50696265 51.8893961 267.44342197 48.75916143 267.37890625 45.62890625 C267.36219376 44.66916397 267.34548126 43.70942169 267.32826233 42.72059631 C267.20391329 36.98311711 266.77911834 31.3821931 266.0625 25.6875 C262.74270077 25.6875 260.49413791 28.12870892 257.9375 30.0625 Z M60.0625 84.6875 C60.0625 89.6375 60.0625 94.5875 60.0625 99.6875 C68.13861636 103.82221383 76.22837496 107.84522179 84.5625 111.4375 C99.70417435 117.9708487 99.70417435 117.9708487 101.0625 120.6875 C100.22074219 120.94402344 99.37898438 121.20054687 98.51171875 121.46484375 C94.79861041 122.78104184 91.36665525 124.44774158 87.875 126.25 C78.69348646 130.91960565 69.38580544 135.30960006 60.0625 139.6875 C60.0625 145.2975 60.0625 150.9075 60.0625 156.6875 C61.23683594 156.130625 62.41117187 155.57375 63.62109375 155 C65.24738734 154.22914875 66.87369014 153.45831692 68.5 152.6875 C69.36020752 152.27959229 70.22041504 151.87168457 71.10668945 151.45141602 C75.24917579 149.48838489 79.39336442 147.52945482 83.546875 145.58984375 C104.05759387 137.49279822 104.05759387 137.49279822 122.0625 125.6875 C122.67616296 121.91695231 122.76506533 118.44892669 122.0625 114.6875 C119.94777046 112.00796691 117.15264997 111.01184999 114.0625 109.6875 C112.99386719 109.17058594 111.92523438 108.65367187 110.82421875 108.12109375 C103.21165196 104.44043027 95.4482808 101.08546387 87.71020508 97.6796875 C81.76678286 95.04528498 75.95699567 92.20225296 70.17578125 89.23046875 C66.84790021 87.58114252 63.48756291 86.12214899 60.0625 84.6875 Z M-23.9375 109.6875 C-24.9275 110.1825 -24.9275 110.1825 -25.9375 110.6875 C-26.0771677 117.96368051 -26.18345506 125.23956714 -26.24837303 132.51682186 C-26.27954788 135.89687233 -26.32175783 139.2759988 -26.39013672 142.65551758 C-26.46326243 146.55053704 -26.49703123 150.44426093 -26.5234375 154.33984375 C-26.55440521 155.5401976 -26.58537292 156.74055145 -26.61727905 157.97727966 C-26.62088238 167.04552727 -24.26088603 172.05101373 -18.14804077 178.60655212 C-9.89449124 186.83709999 2.27618813 191.69165574 13.0625 195.58203125 C15.17253867 196.35955852 17.25263164 197.2209084 19.3046875 198.140625 C40.81697691 207.45731848 65.92873216 209.95109416 88.98730469 212.36206055 C91.32942758 212.60992096 93.66695747 212.90160666 96.00146484 213.21313477 C102.60408814 213.94369598 109.23206694 213.87248899 115.8671875 213.890625 C116.57544804 213.89345238 117.28370857 213.89627975 118.01343155 213.89919281 C121.77930307 213.91412887 125.545137 213.9233873 129.31103516 213.92773438 C132.36324309 213.93207446 135.41516122 213.94579798 138.46728516 213.96875 C157.90758021 214.11202333 176.7684652 213.377378 196.0625 210.6875 C197.97190555 210.4307722 199.88132868 210.17417514 201.79077148 209.91772461 C230.54636632 206.02906324 272.15231508 198.468851 292.0625 175.5 C295.21403364 171.06815582 296.31343075 168.40157281 296.28955078 162.90917969 C296.28939972 161.7482782 296.28924866 160.58737671 296.28909302 159.39129639 C296.27877045 158.14326233 296.26844788 156.89522827 296.2578125 155.609375 C296.2549826 154.32766418 296.25215271 153.04595337 296.24923706 151.72540283 C296.24161788 148.32560361 296.22198434 144.92597654 296.1998291 141.52624512 C296.17933358 138.05397876 296.17022744 134.58168447 296.16015625 131.109375 C296.13873666 124.30201283 296.10462156 117.49476469 296.0625 110.6875 C295.0725 110.3575 294.0825 110.0275 293.0625 109.6875 C292.4025 110.0175 291.7425 110.3475 291.0625 110.6875 C291.04848145 112.47982056 291.04848145 112.47982056 291.03417969 114.30834961 C290.99406238 118.7760027 290.92824458 123.24298282 290.85498047 127.71020508 C290.82689628 129.63719993 290.8056198 131.56430729 290.79150391 133.49145508 C290.76989943 136.27483198 290.72316189 139.0568739 290.671875 141.83984375 C290.67064636 142.69021713 290.66941772 143.54059052 290.66815186 144.41673279 C290.45486615 153.2880782 287.28676965 160.32176967 281.0625 166.6875 C241.44628092 203.34728482 160.90230234 199.37700562 110.88525391 197.546875 C78.89933923 196.11315006 46.83975996 191.88908114 16.5625 181.1875 C15.55405029 180.83212158 14.54560059 180.47674316 13.5065918 180.1105957 C2.10876947 175.88716326 -12.17705394 168.97797427 -17.9375 157.6875 C-19.67982704 151.81994579 -20.26475862 146.47533745 -20.3515625 140.375 C-20.37092865 139.52067383 -20.3902948 138.66634766 -20.4102478 137.78613281 C-20.4695053 135.08668662 -20.51621122 132.38719651 -20.5625 129.6875 C-20.60072946 127.84503461 -20.63978399 126.00258614 -20.6796875 124.16015625 C-20.77516176 119.66941007 -20.85938873 115.17858038 -20.9375 110.6875 C-21.9275 110.3575 -22.9175 110.0275 -23.9375 109.6875 Z M126.0625 145.6875 C125.74192129 148.97514015 125.74192129 148.97514015 125.8125 152.6875 C125.80734375 153.945625 125.8021875 155.20375 125.796875 156.5 C125.72469545 159.78032361 125.72469545 159.78032361 128.0625 161.6875 C131.247196 162.00274528 131.247196 162.00274528 135.05078125 161.9621582 C136.12904678 161.9698246 136.12904678 161.9698246 137.22909546 161.97764587 C139.61114773 161.99157452 141.99291179 161.99058287 144.375 161.98828125 C146.02644967 161.99216606 147.67789834 161.99650028 149.3293457 162.00126648 C152.79283892 162.00873548 156.25623022 162.00843228 159.71972656 162.00317383 C164.16553128 161.99737469 168.61091999 162.01431739 173.05665588 162.0375185 C176.46751356 162.05222496 179.87827029 162.05313184 183.28915405 162.05000877 C184.92866847 162.05052343 186.56818832 162.05578806 188.20767212 162.06582069 C190.49679899 162.0781101 192.78510575 162.07143977 195.07421875 162.05981445 C197.03041138 162.06075859 197.03041138 162.06075859 199.02612305 162.0617218 C200.02812744 161.93822861 201.03013184 161.81473541 202.0625 161.6875 C204.36033606 158.24074591 204.36004883 156.75421888 204.375 152.6875 C204.40013672 151.1096875 204.40013672 151.1096875 204.42578125 149.5 C204.27963702 146.75591434 204.27963702 146.75591434 202.97792053 145.0349884 C200.05947088 142.98187422 197.58865798 143.31345229 194.05249023 143.31518555 C192.98863602 143.30970955 192.98863602 143.30970955 191.90328979 143.30412292 C189.55898089 143.29601677 187.21536299 143.30962609 184.87109375 143.32421875 C183.24349467 143.32473729 181.61589497 143.32421981 179.98829651 143.32270813 C176.57779589 143.32279785 173.16753166 143.33322819 169.75708008 143.35131836 C165.37974615 143.37402364 161.00275715 143.37454643 156.62538052 143.36780071 C153.26513081 143.3644639 149.90496015 143.37108505 146.54472542 143.38092995 C144.93034338 143.38478587 143.31595256 143.38592854 141.7015667 143.3843441 C139.44857817 143.38397437 137.19603677 143.39656647 134.94311523 143.4128418 C133.65976791 143.41744919 132.37642059 143.42205658 131.05418396 143.42680359 C127.94678457 143.37451385 127.94678457 143.37451385 126.0625 145.6875 Z M-25.9375 202.6875 C-26.08714803 207.0798615 -26.19531326 211.47082766 -26.26708984 215.86499023 C-26.29704481 217.35581342 -26.33782569 218.84646368 -26.39013672 220.33666992 C-26.66983293 228.51641305 -26.88711052 235.2835232 -21.52978516 242.00805664 C-20.741604 242.8393811 -20.741604 242.8393811 -19.9375 243.6875 C-19.15898682 244.54299438 -19.15898682 244.54299438 -18.36474609 245.41577148 C-17.00723396 246.90925304 -17.00723396 246.90925304 -14.9375 246.6875 C-14.9375 247.3475 -14.9375 248.0075 -14.9375 248.6875 C-12.9575 249.3475 -10.9775 250.0075 -8.9375 250.6875 C-8.9375 251.3475 -8.9375 252.0075 -8.9375 252.6875 C-1.14078892 256.52343646 6.68465275 260.08061346 14.875 263 C15.54265381 263.24186035 16.21030762 263.4837207 16.89819336 263.73291016 C22.31245592 265.61204396 27.30983353 266.53696671 33.0625 267.6875 C33.0625 255.4775 33.0625 243.2675 33.0625 230.6875 C30.236875 229.82125 27.41125 228.955 24.5 228.0625 C8.25706924 222.96905843 -7.1098674 216.8277639 -20.9375 206.6875 C-21.5975 206.6875 -22.2575 206.6875 -22.9375 206.6875 C-22.9375 206.0275 -22.9375 205.3675 -22.9375 204.6875 C-23.5975 204.6875 -24.2575 204.6875 -24.9375 204.6875 C-25.2675 204.0275 -25.5975 203.3675 -25.9375 202.6875 Z M293.0625 204.6875 C293.0625 205.3475 293.0625 206.0075 293.0625 206.6875 C290.39583333 208.02083333 287.72916667 209.35416667 285.0625 210.6875 C285.0625 211.3475 285.0625 212.0075 285.0625 212.6875 C284.20591797 212.86732422 284.20591797 212.86732422 283.33203125 213.05078125 C280.91036109 213.73018269 278.96772275 214.69144848 276.75 215.875 C264.02807146 222.3286897 250.66131964 226.5185188 237.0625 230.6875 C237.0625 242.8975 237.0625 255.1075 237.0625 267.6875 C244.96841708 266.18765602 244.96841708 266.18765602 252.46484375 263.953125 C253.82234741 263.46718872 253.82234741 263.46718872 255.20727539 262.97143555 C256.12887451 262.63023682 257.05047363 262.28903809 258 261.9375 C258.96349365 261.58405518 259.9269873 261.23061035 260.91967773 260.86645508 C267.6769859 258.33382261 273.93018155 255.51596401 280.0625 251.6875 C280.97902344 251.17832031 281.89554687 250.66914063 282.83984375 250.14453125 C283.94005859 249.42330078 283.94005859 249.42330078 285.0625 248.6875 C285.0625 248.0275 285.0625 247.3675 285.0625 246.6875 C285.65675781 246.44 286.25101562 246.1925 286.86328125 245.9375 C289.39788759 244.49687117 290.56219565 243.0478228 292.25 240.6875 C293.01376953 239.635625 293.01376953 239.635625 293.79296875 238.5625 C296.33302388 234.81103396 296.17859176 232.24607406 296.16015625 227.7109375 C296.15803383 226.68306625 296.15803383 226.68306625 296.15586853 225.63442993 C296.15026675 223.44374239 296.13771406 221.2531567 296.125 219.0625 C296.11998522 217.57812648 296.11542228 216.09375135 296.11132812 214.609375 C296.10029677 210.96871685 296.08303099 207.32811836 296.0625 203.6875 C294.8388932 203.6129644 294.8388932 203.6129644 293.0625 204.6875 Z M49.0625 234.6875 C49.0625 246.8975 49.0625 259.1075 49.0625 271.6875 C76.66104902 277.39754463 103.6918999 280.0459208 131.88720703 279.94824219 C135.55908712 279.93750998 139.2304782 279.94821685 142.90234375 279.9609375 C162.2387382 279.97324903 181.36050079 278.96956438 200.4375 275.6875 C201.45070313 275.5225 202.46390625 275.3575 203.5078125 275.1875 C209.42801003 274.20591284 215.18555186 272.99348848 221.0625 271.6875 C221.0625 259.4775 221.0625 247.2675 221.0625 234.6875 C216.23625 235.3371875 216.23625 235.3371875 211.3125 236 C210.23073486 236.14526123 209.14896973 236.29052246 208.03442383 236.44018555 C203.30917656 237.08199661 198.59261112 237.74757809 193.88671875 238.51953125 C185.69714991 239.86186079 177.6087804 240.91131226 169.3125 241.265625 C168.41152084 241.3059787 167.51054169 241.3463324 166.58226013 241.38790894 C156.43094183 241.80682209 146.28344393 241.84386072 136.125 241.8125 C135.16116394 241.81028442 134.19732788 241.80806885 133.20428467 241.80578613 C104.58253491 241.72877428 77.36191927 239.04125681 49.0625 234.6875 Z M-25.9375 256.6875 C-25.98711351 260.86839192 -26.02332016 265.04912566 -26.04736328 269.23022461 C-26.05739146 270.65115343 -26.07101741 272.07206178 -26.08837891 273.49291992 C-26.11276821 275.54090444 -26.1240149 277.58861498 -26.1328125 279.63671875 C-26.14328613 280.86737061 -26.15375977 282.09802246 -26.16455078 283.3659668 C-25.9441407 286.59035303 -25.32549202 288.79384881 -23.9375 291.6875 C-23.2775 291.6875 -22.6175 291.6875 -21.9375 291.6875 C-21.669375 292.285625 -21.40125 292.88375 -21.125 293.5 C-19.93832594 295.68597854 -18.84150887 297.10082594 -16.9375 298.6875 C-16.2775 298.6875 -15.6175 298.6875 -14.9375 298.6875 C-14.9375 299.3475 -14.9375 300.0075 -14.9375 300.6875 C-12.77242541 301.94032406 -10.60551643 303.18978442 -8.4375 304.4375 C-7.83679688 304.78554688 -7.23609375 305.13359375 -6.6171875 305.4921875 C-4.73309647 306.57453767 -2.83873731 307.63557701 -0.9375 308.6875 C-0.34380615 309.02040039 0.2498877 309.35330078 0.86157227 309.69628906 C6.95406191 312.94114121 13.42642652 314.89625234 20 316.9375 C21.14791016 317.30101562 22.29582031 317.66453125 23.47851562 318.0390625 C28.1812877 319.82898039 28.1812877 319.82898039 33.0625 320.6875 C33.0625 308.4775 33.0625 296.2675 33.0625 283.6875 C29.989375 282.800625 26.91625 281.91375 23.75 281 C16.19575918 278.75849874 9.10379319 276.25283746 2.0625 272.6875 C0.77587734 272.08221104 -0.51198593 271.47955524 -1.80078125 270.87890625 C-9.294932 267.33107803 -15.84244575 263.68653086 -22.1171875 258.15625 C-23.80709061 256.4781839 -23.80709061 256.4781839 -25.9375 256.6875 Z M289.0625 260.6875 C289.0625 261.3475 289.0625 262.0075 289.0625 262.6875 C288.33675781 262.96207031 287.61101562 263.23664063 286.86328125 263.51953125 C284.17948235 264.63871657 281.76875566 265.92721132 279.25 267.375 C265.67642784 274.81331754 251.91845971 279.45767814 237.0625 283.6875 C237.0625 295.8975 237.0625 308.1075 237.0625 320.6875 C269.82557255 311.7275802 269.82557255 311.7275802 295.15185547 289.98730469 C296.4268251 286.76740818 296.28614246 283.97187981 296.2578125 280.515625 C296.25356766 279.4919986 296.25356766 279.4919986 296.24923706 278.44769287 C296.23808098 276.27744693 296.21298557 274.10762029 296.1875 271.9375 C296.17746426 270.46224556 296.16833944 268.98698463 296.16015625 267.51171875 C296.13815687 263.90351058 296.10365883 260.29554625 296.0625 256.6875 C292.88209166 256.6875 291.3540768 258.63714181 289.0625 260.6875 Z M49.0625 286.6875 C49.0625 298.8975 49.0625 311.1075 49.0625 323.6875 C70.91152803 329.93007944 93.55159135 331.84401151 116.1953125 331.85546875 C117.72305327 331.85869562 119.25079375 331.86206066 120.77853394 331.86555481 C123.96369134 331.87149748 127.14882183 331.87339983 130.33398438 331.87280273 C133.55897649 331.87272162 136.78382614 331.87964857 140.00878906 331.89331055 C165.10234572 332.0330378 165.10234572 332.0330378 190.0625 329.6875 C191.1354834 329.55110107 192.2084668 329.41470215 193.31396484 329.27416992 C195.94316692 328.93844652 198.56493986 328.57118645 201.1875 328.1875 C202.44820313 328.01154297 202.44820313 328.01154297 203.734375 327.83203125 C213.02743297 327.16761877 213.02743297 327.16761877 221.0625 323.6875 C221.15108646 320.94855915 221.17773479 318.2349673 221.16015625 315.49609375 C221.1587413 314.67625504 221.15732635 313.85641632 221.15586853 313.01173401 C221.15025289 310.38278618 221.13769779 307.75392227 221.125 305.125 C221.11998701 303.34700643 221.11542376 301.56901154 221.11132812 299.79101562 C221.10027839 295.42314455 221.08300331 291.05533652 221.0625 286.6875 C220.44431396 286.79819824 219.82612793 286.90889648 219.18920898 287.02294922 C193.3734376 291.6278599 193.3734376 291.6278599 183.0625 292.6875 C182.19963379 292.77773438 181.33676758 292.86796875 180.44775391 292.9609375 C136.76474513 297.31966684 92.10490341 295.29598068 49.0625 286.6875 Z " fill="#3C434A" transform="translate(118.9375,47.3125)"/>
<path d="M0 0 C0.66 0 1.32 0 2 0 C2.33 0.99 2.66 1.98 3 3 C3.99 3.66 4.98 4.32 6 5 C6.66 4.67 7.32 4.34 8 4 C8 4.99 8 5.98 8 7 C9.65 7 11.3 7 13 7 C12.67 17.23 12.34 27.46 12 38 C11.67 38 11.34 38 11 38 C11 28.76 11 19.52 11 10 C9.35 11.32 7.7 12.64 6 14 C5.34 14 4.68 14 4 14 C4 14.66 4 15.32 4 16 C1.96310519 17.45833318 -0.04788867 18.77227051 -2.1875 20.0625 C-2.76564453 20.42666016 -3.34378906 20.79082031 -3.93945312 21.16601562 C-7.24651785 23.18762242 -10.11169909 24.6615866 -14 25 C-16 24 -16 24 -17 21 C-17.66 20.34 -18.32 19.68 -19 19 C-17.68 18.67 -16.36 18.34 -15 18 C-15 17.01 -15 16.02 -15 15 C-18.01031744 14.06576355 -18.86650268 13.95550089 -22 15 C-22.66 14.34 -23.32 13.68 -24 13 C-22.37191406 12.31164062 -22.37191406 12.31164062 -20.7109375 11.609375 C-19.26549027 10.98989761 -17.82018528 10.37008825 -16.375 9.75 C-15.66214844 9.44964844 -14.94929688 9.14929688 -14.21484375 8.83984375 C-10.81126227 7.3722444 -7.65865356 5.8730665 -4.6015625 3.765625 C-2 2 -2 2 0 2 C0 1.34 0 0.68 0 0 Z " fill="#3F454B" transform="translate(404,294)"/>
<path d="M0 0 C2.64 0.99 5.28 1.98 8 3 C8 3.33 8 3.66 8 4 C6.35 4 4.7 4 3 4 C3 4.66 3 5.32 3 6 C3.66 6 4.32 6 5 6 C5 7.65 5 9.3 5 11 C3.02 11.99 3.02 11.99 1 13 C1.66 13.66 2.32 14.32 3 15 C0.34501768 16.0169313 -0.69155375 16.13022151 -3.359375 15.00390625 C-4.14828125 14.52824219 -4.9371875 14.05257813 -5.75 13.5625 C-6.54921875 13.08941406 -7.3484375 12.61632812 -8.171875 12.12890625 C-8.77515625 11.75636719 -9.3784375 11.38382812 -10 11 C-8.68 10.34 -7.36 9.68 -6 9 C-6 9.66 -6 10.32 -6 11 C-5.34 11 -4.68 11 -4 11 C-4 9.68 -4 8.36 -4 7 C-3.02149805 5.97895449 -2.02019573 4.9793879 -1 4 C-0.67 2.68 -0.34 1.36 0 0 Z " fill="#484E54" transform="translate(115,302)"/>
<path d="M0 0 C0.33 0 0.66 0 1 0 C0.99476318 0.97348389 0.98952637 1.94696777 0.98413086 2.94995117 C0.96597883 6.574779 0.95453077 10.19960283 0.94506836 13.82446289 C0.94005144 15.39087602 0.93323638 16.9572845 0.92456055 18.52368164 C0.91237906 20.78012239 0.90674519 23.03650102 0.90234375 25.29296875 C0.89718246 25.98899704 0.89202118 26.68502533 0.88670349 27.40214539 C0.8862829 31.07906903 1.23696603 34.41211685 2 38 C1.44140625 40.23828125 1.44140625 40.23828125 0.5625 42.3125 C0.27503906 43.00988281 -0.01242188 43.70726562 -0.30859375 44.42578125 C-0.53675781 44.94527344 -0.76492187 45.46476562 -1 46 C-1.33 46 -1.66 46 -2 46 C-2.27380247 30.54537149 -1.52306778 15.38055415 0 0 Z " fill="#62656A" transform="translate(107,54)"/>
<path d="M0 0 C0.33 0 0.66 0 1 0 C1.00808685 0.70299728 1.01617371 1.40599457 1.02450562 2.1302948 C1.10255112 8.76587067 1.18987159 15.40125272 1.28752708 22.03657055 C1.33740404 25.44759771 1.38373441 28.8585952 1.421875 32.26977539 C1.46591305 36.1943487 1.52552919 40.11861191 1.5859375 44.04296875 C1.59748871 45.26396774 1.60903992 46.48496674 1.62094116 47.7429657 C1.64081085 48.8837709 1.66068054 50.02457611 1.68115234 51.19995117 C1.69447601 52.20144699 1.70779968 53.20294281 1.7215271 54.23478699 C2.01483223 57.14728285 2.78503997 59.35022192 4 62 C2.68 62 1.36 62 0 62 C0 41.54 0 21.08 0 0 Z " fill="#5E5F64" transform="translate(92,158)"/>
<path d="M0 0 C0.33 0.99 0.66 1.98 1 3 C2.65 3 4.3 3 6 3 C5.67 13.23 5.34 23.46 5 34 C4.67 34 4.34 34 4 34 C4 24.76 4 15.52 4 6 C2.35 6.66 0.7 7.32 -1 8 C-1.66 7.67 -2.32 7.34 -3 7 C-3.625 4.9375 -3.625 4.9375 -4 3 C-3.34 3 -2.68 3 -2 3 C-1.67 2.34 -1.34 1.68 -1 1 C-0.67 0.67 -0.34 0.34 0 0 Z " fill="#696E77" transform="translate(411,298)"/>
<path d="M0 0 C10.09117362 3.09990301 10.09117362 3.09990301 14 6 C14 6.66 14 7.32 14 8 C8.58461538 11.07692308 8.58461538 11.07692308 5.625 10.6875 C5.08875 10.460625 4.5525 10.23375 4 10 C4.66 8.35 5.32 6.7 6 5 C5.34 4.67 4.68 4.34 4 4 C4 3.34 4 2.68 4 2 C3.01 2.33 2.02 2.66 1 3 C0.67 2.01 0.34 1.02 0 0 Z " fill="#4C4F54" transform="translate(206,160)"/>
<path d="M0 0 C0.5983667 0.08564209 1.1967334 0.17128418 1.81323242 0.25952148 C12.85924908 1.83055295 23.85160517 3.38999349 35 4 C35 4.33 35 4.66 35 5 C25.55686761 6.22410975 18.04385709 6.26405391 8.83203125 3.65625 C6.10708604 3.02481442 3.78386086 2.8778562 1 3 C0.67 2.01 0.34 1.02 0 0 Z " fill="#5E6265" transform="translate(181,321)"/>
<path d="M0 0 C2.67927341 4.01891012 2.15601248 6.24161923 2 11 C3.65 11.33 5.3 11.66 7 12 C7 13.65 7 15.3 7 17 C5.35 17 3.7 17 2 17 C-0.44064587 11.35600642 -0.19289099 6.02248522 0 0 Z " fill="#31373E" transform="translate(120,118)"/>
<path d="M0 0 C8.12996005 0.34087883 8.12996005 0.34087883 11.0625 2.5625 C12.44027661 6.1447192 12.19130045 9.17399094 12 13 C11.67 13 11.34 13 11 13 C10.938125 12.21625 10.87625 11.4325 10.8125 10.625 C10.544375 9.75875 10.27625 8.8925 10 8 C7.52363988 6.62533375 7.52363988 6.62533375 5 6 C5 4.35 5 2.7 5 1 C3.35 1 1.7 1 0 1 C0 0.67 0 0.34 0 0 Z " fill="#55595E" transform="translate(389,47)"/>
<path d="M0 0 C4.62 2.31 9.24 4.62 14 7 C13.01 7.66 12.02 8.32 11 9 C8.58984375 8.35546875 8.58984375 8.35546875 5.9375 7.1875 C5.05964844 6.80980469 4.18179688 6.43210937 3.27734375 6.04296875 C1.84076971 5.38505234 0.41325128 4.70662564 -1 4 C-0.67 2.68 -0.34 1.36 0 0 Z " fill="#565A5F" transform="translate(106,349)"/>
<path d="M0 0 C2.80507852 1.40253926 3.01169058 3.10566526 4 6 C4 6.66 4 7.32 4 8 C1.36 7.34 -1.28 6.68 -4 6 C-4 5.34 -4 4.68 -4 4 C-3.34 4 -2.68 4 -2 4 C-2 3.01 -2 2.02 -2 1 C-1.34 0.67 -0.68 0.34 0 0 Z " fill="#4B4F54" transform="translate(147,226)"/>
<path d="M0 0 C0 1.98 0 3.96 0 6 C-0.928125 5.649375 -1.85625 5.29875 -2.8125 4.9375 C-5.9802953 3.67617372 -5.9802953 3.67617372 -9 5 C-9.66 4.34 -10.32 3.68 -11 3 C-9.73160474 2.49384702 -8.46016898 1.99530901 -7.1875 1.5 C-6.12595703 1.08234375 -6.12595703 1.08234375 -5.04296875 0.65625 C-3 0 -3 0 0 0 Z " fill="#4E5258" transform="translate(391,304)"/>
<path d="M0 0 C0.66 0.33 1.32 0.66 2 1 C1.39816251 3.02045442 0.72693904 5.02111039 0 7 C-2.86177057 8.43088528 -4.93375773 7.59991697 -8 7 C-7.34 6.01 -6.68 5.02 -6 4 C-5.01 4 -4.02 4 -3 4 C-3 3.34 -3 2.68 -3 2 C-2.01 1.34 -1.02 0.68 0 0 Z " fill="#6A6E72" transform="translate(322,87)"/>
<path d="M0 0 C2.375 0.1875 2.375 0.1875 5 1 C6.3125 3.5625 6.3125 3.5625 7 6 C4.03 5.67 1.06 5.34 -2 5 C-1.34 3.35 -0.68 1.7 0 0 Z " fill="#444951" transform="translate(313,401)"/>
<path d="M0 0 C0.33 0 0.66 0 1 0 C1.02578125 1.05960938 1.0515625 2.11921875 1.078125 3.2109375 C1.1343978 4.59900001 1.19174533 5.98701925 1.25 7.375 C1.26417969 8.07367188 1.27835938 8.77234375 1.29296875 9.4921875 C1.36035782 11.77717646 1.36035782 11.77717646 2 15 C3.91388341 16.56483494 3.91388341 16.56483494 6 17 C4.1875 18.0625 4.1875 18.0625 2 19 C1.01 18.67 0.02 18.34 -1 18 C-0.505 9.09 -0.505 9.09 0 0 Z " fill="#8F9195" transform="translate(178,132)"/>
<path d="M0 0 C0 1.32 0 2.64 0 4 C-3.11771927 5.60339848 -4.39011689 6.18974141 -7.8125 5.125 C-8.534375 4.75375 -9.25625 4.3825 -10 4 C-4 0 -4 0 0 0 Z " fill="#505459" transform="translate(158,111)"/>
<path d="M0 0 C2.97 1.98 2.97 1.98 6 4 C4.515 6.475 4.515 6.475 3 9 C2.01 8.34 1.02 7.68 0 7 C-0.1875 3.375 -0.1875 3.375 0 0 Z " fill="#4F5459" transform="translate(194,93)"/>
<path d="M0 0 C3.26954202 0.56371414 4.82575883 1.49962266 7 4 C6.67 4.66 6.34 5.32 6 6 C3.5625 6.75 3.5625 6.75 1 7 C0.34 6.34 -0.32 5.68 -1 5 C-0.625 2.375 -0.625 2.375 0 0 Z " fill="#4F545A" transform="translate(120,385)"/>
<path d="M0 0 C3.3 0.99 6.6 1.98 10 3 C6 6 6 6 3.875 6 C1.20633222 4.57671052 0.8642313 2.80875171 0 0 Z " fill="#5E6568" transform="translate(128,360)"/>
<path d="M0 0 C0.33 0.99 0.66 1.98 1 3 C1.66 3 2.32 3 3 3 C3 3.66 3 4.32 3 5 C-2.75 6.125 -2.75 6.125 -5 5 C-4.1875 3.0625 -4.1875 3.0625 -3 1 C-2.01 0.67 -1.02 0.34 0 0 Z " fill="#565A60" transform="translate(94,336)"/>
<path d="M0 0 C-1.625 2.0625 -1.625 2.0625 -4 4 C-7.25 3.75 -7.25 3.75 -10 3 C-4.375 -1.3125 -4.375 -1.3125 0 0 Z " fill="#5C6064" transform="translate(208,192)"/>
<path d="M0 0 C0.99 1.32 1.98 2.64 3 4 C2.34 4 1.68 4 1 4 C0.67 4.99 0.34 5.98 0 7 C-4.75 5.125 -4.75 5.125 -7 4 C-5.68 3.67 -4.36 3.34 -3 3 C-3 2.34 -3 1.68 -3 1 C-2.01 0.67 -1.02 0.34 0 0 Z " fill="#5C6166" transform="translate(134,121)"/>
<path d="M0 0 C0.66 0.33 1.32 0.66 2 1 C-0.25 3.5 -0.25 3.5 -3 6 C-4.32 6 -5.64 6 -7 6 C-7.33 6.66 -7.66 7.32 -8 8 C-8.66 7.34 -9.32 6.68 -10 6 C-8.3811004 4.96951963 -6.75467511 3.95085322 -5.125 2.9375 C-4.22007812 2.36902344 -3.31515625 1.80054688 -2.3828125 1.21484375 C-1.20332031 0.61349609 -1.20332031 0.61349609 0 0 Z " fill="#707477" transform="translate(376,53)"/>
<path d="M0 0 C2.97 0.495 2.97 0.495 6 1 C6 1.33 6 1.66 6 2 C8.31 2.33 10.62 2.66 13 3 C13 3.33 13 3.66 13 4 C8.05 4 3.1 4 -2 4 C-1.34 3.67 -0.68 3.34 0 3 C0 2.01 0 1.02 0 0 Z " fill="#292E34" transform="translate(283,337)"/>
<path d="M0 0 C0.66 0 1.32 0 2 0 C2 0.66 2 1.32 2 2 C5.465 1.505 5.465 1.505 9 1 C6.61419704 3.88807727 4.70939253 4.61954948 1 5 C0.34 4.67 -0.32 4.34 -1 4 C-0.67 2.68 -0.34 1.36 0 0 Z " fill="#585D63" transform="translate(389,314)"/>
<path d="M0 0 C0.66 0 1.32 0 2 0 C1.67 4.95 1.34 9.9 1 15 C0.67 15 0.34 15 0 15 C-0.38863565 12.87745145 -0.76053209 10.75183172 -1.125 8.625 C-1.33382812 7.44164062 -1.54265625 6.25828125 -1.7578125 5.0390625 C-1.83773437 4.03617188 -1.91765625 3.03328125 -2 2 C-1.34 1.34 -0.68 0.68 0 0 Z " fill="#2E3338" transform="translate(243,192)"/>
<path d="M0 0 C1.98 0.66 3.96 1.32 6 2 C5.01 2.33 4.02 2.66 3 3 C2.26676204 5.01508358 2.26676204 5.01508358 2 7 C1.34 7 0.68 7 0 7 C0 6.34 0 5.68 0 5 C-0.66 5 -1.32 5 -2 5 C-1.34 3.35 -0.68 1.7 0 0 Z " fill="#51565C" transform="translate(371,120)"/>
<path d="M0 0 C-2.93373731 1.95582488 -5.78216298 3.56224304 -9 5 C-9.66 4.67 -10.32 4.34 -11 4 C-11 3.01 -11 2.02 -11 1 C-7.27569643 0.30710631 -3.78916254 -0.11144596 0 0 Z " fill="#5E6366" transform="translate(402,385)"/>
<path d="M0 0 C1.32 0.33 2.64 0.66 4 1 C4 1.66 4 2.32 4 3 C4.99 3.33 5.98 3.66 7 4 C5.02 4.66 3.04 5.32 1 6 C0.01 4.68 -0.98 3.36 -2 2 C-1.34 2 -0.68 2 0 2 C0 1.34 0 0.68 0 0 Z " fill="#55585D" transform="translate(106,297)"/>
<path d="M0 0 C0 0.33 0 0.66 0 1 C-1.65 1 -3.3 1 -5 1 C-4.01 1.99 -3.02 2.98 -2 4 C-3.8125 5.0625 -3.8125 5.0625 -6 6 C-6.99 5.67 -7.98 5.34 -9 5 C-8.34 4.34 -7.68 3.68 -7 3 C-7.33 2.34 -7.66 1.68 -8 1 C-5.29120665 -0.35439668 -2.99066732 -0.06501451 0 0 Z " fill="#444A50" transform="translate(206,377)"/>
<path d="M0 0 C0.33 0.66 0.66 1.32 1 2 C-5.27692308 4.21538462 -5.27692308 4.21538462 -8.9375 3.125 C-9.618125 2.75375 -10.29875 2.3825 -11 2 C-11 1.67 -11 1.34 -11 1 C-7.27569643 0.30710631 -3.78916254 -0.11144596 0 0 Z " fill="#4D5057" transform="translate(314,376)"/>
<path d="M0 0 C0.66 0.33 1.32 0.66 2 1 C2.34153937 2.66500443 2.67449498 4.33178677 3 6 C3.66 6.66 4.32 7.32 5 8 C4.01 8.495 4.01 8.495 3 9 C0.69 7.35 -1.62 5.7 -4 4 C-2.68 3.34 -1.36 2.68 0 2 C0 1.34 0 0.68 0 0 Z " fill="#5E6266" transform="translate(164,98)"/>
<path d="M0 0 C0.66 0.33 1.32 0.66 2 1 C2.33 1.99 2.66 2.98 3 4 C-3.28571429 6.42857143 -3.28571429 6.42857143 -7 5 C-2.25 2 -2.25 2 0 2 C0 1.34 0 0.68 0 0 Z " fill="#616469" transform="translate(345,72)"/>
<path d="M0 0 C1.62580966 0.11398665 3.25067157 0.24155659 4.875 0.375 C5.77992188 0.44460938 6.68484375 0.51421875 7.6171875 0.5859375 C10 1 10 1 12 3 C11.01 3.33 10.02 3.66 9 4 C9 3.34 9 2.68 9 2 C7.329375 2.2784375 7.329375 2.2784375 5.625 2.5625 C2 3 2 3 0 2 C0 1.34 0 0.68 0 0 Z " fill="#626568" transform="translate(137,312)"/>
<path d="M0 0 C0.66 0.33 1.32 0.66 2 1 C2 2.65 2 4.3 2 6 C-0.97 5.505 -0.97 5.505 -4 5 C-4 4.01 -4 3.02 -4 2 C-2.125 0.9375 -2.125 0.9375 0 0 Z " fill="#565B60" transform="translate(216,185)"/>
<path d="M0 0 C4.6875 3.61328125 4.6875 3.61328125 6 5 C6 5.99 6 6.98 6 8 C5.34 8 4.68 8 4 8 C4 7.34 4 6.68 4 6 C3.0409375 5.566875 3.0409375 5.566875 2.0625 5.125 C0 4 0 4 -1 2 C-0.67 1.34 -0.34 0.68 0 0 Z " fill="#525459" transform="translate(141,82)"/>
<path d="M0 0 C0.99 0.66 1.98 1.32 3 2 C2.34 3.32 1.68 4.64 1 6 C0.34 6 -0.32 6 -1 6 C-1.33 6.99 -1.66 7.98 -2 9 C-3 6 -3 6 -1.5625 2.8125 C-1.046875 1.884375 -0.53125 0.95625 0 0 Z " fill="#5D5F63" transform="translate(429,361)"/>
<path d="M0 0 C1.32 0 2.64 0 4 0 C3.67 1.32 3.34 2.64 3 4 C0.69 4.33 -1.62 4.66 -4 5 C-3.67 4.01 -3.34 3.02 -3 2 C-2.01 2 -1.02 2 0 2 C0 1.34 0 0.68 0 0 Z " fill="#31353B" transform="translate(339,233)"/>
<path d="M0 0 C2 1 2 1 3 3 C1.68 4.32 0.36 5.64 -1 7 C-1.99 6.67 -2.98 6.34 -4 6 C-3.01 5.01 -2.02 4.02 -1 3 C-1.33 2.34 -1.66 1.68 -2 1 C-1.34 0.67 -0.68 0.34 0 0 Z " fill="#55585E" transform="translate(333,80)"/>
<path d="M0 0 C-0.33 0.99 -0.66 1.98 -1 3 C-1.99 3.33 -2.98 3.66 -4 4 C-4.33 3.01 -4.66 2.02 -5 1 C-5.66 0.67 -6.32 0.34 -7 0 C-4.3333581 -1.33332095 -2.83319697 -0.67102033 0 0 Z " fill="#555A5F" transform="translate(383,361)"/>
<path d="M0 0 C1.0625 1.8125 1.0625 1.8125 2 4 C1.67 4.99 1.34 5.98 1 7 C-0.65 7 -2.3 7 -4 7 C-2.68 4.69 -1.36 2.38 0 0 Z " fill="#606367" transform="translate(414,335)"/>
<path d="M0 0 C0.66 0 1.32 0 2 0 C0.52307692 4.67692308 0.52307692 4.67692308 -2.125 6.3125 C-3.053125 6.6528125 -3.053125 6.6528125 -4 7 C-4.33 6.01 -4.66 5.02 -5 4 C-3.35 3.34 -1.7 2.68 0 2 C0 1.34 0 0.68 0 0 Z " fill="#51555B" transform="translate(404,294)"/>
<path d="M0 0 C3.63 0 7.26 0 11 0 C7 3 7 3 4 3 C4 2.34 4 1.68 4 1 C2.68 1.33 1.36 1.66 0 2 C0 1.34 0 0.68 0 0 Z " fill="#2F3239" transform="translate(303,259)"/>
<path d="M0 0 C2.125 0.9375 2.125 0.9375 4 2 C3.67 2.66 3.34 3.32 3 4 C0.03 4 -2.94 4 -6 4 C-4.03617993 2.49440461 -2.21736634 1.10868317 0 0 Z " fill="#4F5358" transform="translate(235,176)"/>
<path d="M0 0 C1.98 0.495 1.98 0.495 4 1 C4 2.32 4 3.64 4 5 C4.66 5.33 5.32 5.66 6 6 C3.625 6.1875 3.625 6.1875 1 6 C0.34 5.01 -0.32 4.02 -1 3 C-0.67 2.01 -0.34 1.02 0 0 Z " fill="#30363E" transform="translate(355,393)"/>
<path d="M0 0 C0 0.99 0 1.98 0 3 C-4.29 2.67 -8.58 2.34 -13 2 C-13 1.67 -13 1.34 -13 1 C-8.62426048 0.40667939 -4.42471556 -0.13827236 0 0 Z " fill="#676A6E" transform="translate(194,283)"/>
<path d="M0 0 C1.48199902 0.44909061 2.96055236 0.90956564 4.4375 1.375 C5.26121094 1.63023437 6.08492187 1.88546875 6.93359375 2.1484375 C9 3 9 3 10 5 C9.01 5.33 8.02 5.66 7 6 C6.01 5.34 5.02 4.68 4 4 C4 3.34 4 2.68 4 2 C3.01 2.33 2.02 2.66 1 3 C0.67 2.01 0.34 1.02 0 0 Z " fill="#696C72" transform="translate(206,160)"/>
<path d="M0 0 C0.66 0 1.32 0 2 0 C2.33 1.65 2.66 3.3 3 5 C1.02 5.99 1.02 5.99 -1 7 C-1.625 4.625 -1.625 4.625 -2 2 C-1.34 1.34 -0.68 0.68 0 0 Z " fill="#353B41" transform="translate(324,87)"/>
<path d="M0 0 C0.66 0.33 1.32 0.66 2 1 C1.67 1.99 1.34 2.98 1 4 C-1.64 4.33 -4.28 4.66 -7 5 C-2.25 1.125 -2.25 1.125 0 0 Z " fill="#4F5359" transform="translate(354,67)"/>
<path d="M0 0 C2.97 0.495 2.97 0.495 6 1 C3.73814546 3.26185454 2.03016439 4.03921617 -1 5 C-1.99 4.67 -2.98 4.34 -4 4 C-3.34 4 -2.68 4 -2 4 C-2 3.34 -2 2.68 -2 2 C-1.34 2 -0.68 2 0 2 C0 1.34 0 0.68 0 0 Z " fill="#707275" transform="translate(377,321)"/>
<path d="M0 0 C-2.35953094 2.35953094 -3.77895617 2.49141413 -7 3 C-7 2.34 -7 1.68 -7 1 C-7.66 0.67 -8.32 0.34 -9 0 C-5.93109813 -1.53445094 -3.29905734 -0.54984289 0 0 Z " fill="#343A40" transform="translate(357,252)"/>
<path d="M0 0 C2.475 0.99 2.475 0.99 5 2 C5 2.66 5 3.32 5 4 C3.1875 4.6875 3.1875 4.6875 1 5 C-0.75 3.5625 -0.75 3.5625 -2 2 C-1.34 1.34 -0.68 0.68 0 0 Z " fill="#4A4E53" transform="translate(187,178)"/>
<path d="M0 0 C0.66 0.66 1.32 1.32 2 2 C1.67 2.99 1.34 3.98 1 5 C-1.0625 5.6875 -1.0625 5.6875 -3 6 C-3.33 4.68 -3.66 3.36 -4 2 C-2.68 1.34 -1.36 0.68 0 0 Z " fill="#363A42" transform="translate(93,153)"/>
<path d="M0 0 C0.99 0.33 1.98 0.66 3 1 C3.33 2.65 3.66 4.3 4 6 C2.68 6.33 1.36 6.66 0 7 C-0.93423645 3.98968256 -1.04449911 3.13349732 0 0 Z " fill="#373C42" transform="translate(75,134)"/>
<path d="M0 0 C0.99 0.33 1.98 0.66 3 1 C0.42215154 3.64752004 -1.91648098 5.94432065 -5 8 C-4.45773019 4.20411134 -2.79872437 2.52788007 0 0 Z " fill="#5A5C61" transform="translate(82,124)"/>
<path d="M0 0 C1.32 0.33 2.64 0.66 4 1 C2.25 5.875 2.25 5.875 0 7 C0 4.69 0 2.38 0 0 Z " fill="#373B40" transform="translate(414,120)"/>
<path d="M0 0 C2.76276177 0.52268466 5.3260876 1.10869587 8 2 C4.86501708 3.85776765 2.62528568 4.20140476 -1 4 C-0.67 2.68 -0.34 1.36 0 0 Z " fill="#363B40" transform="translate(366,393)"/>
<path d="M0 0 C1.485 0.99 1.485 0.99 3 2 C1.68 2.33 0.36 2.66 -1 3 C-0.67 2.01 -0.34 1.02 0 0 Z M-2 3 C-1.34 3.66 -0.68 4.32 0 5 C-1.98 5.99 -1.98 5.99 -4 7 C-4.33 6.01 -4.66 5.02 -5 4 C-4.01 3.67 -3.02 3.34 -2 3 Z " fill="#373C42" transform="translate(412,222)"/>
<path d="M0 0 C0.33 0.66 0.66 1.32 1 2 C1.66 2.33 2.32 2.66 3 3 C2.01 3.495 2.01 3.495 1 4 C1.33 4.66 1.66 5.32 2 6 C0.0625 5.6875 0.0625 5.6875 -2 5 C-2.33 4.01 -2.66 3.02 -3 2 C-2.01 1.34 -1.02 0.68 0 0 Z " fill="#32383E" transform="translate(218,144)"/>
<path d="M0 0 C1.98 0 3.96 0 6 0 C5.67 1.32 5.34 2.64 5 4 C2.525 3.01 2.525 3.01 0 2 C0 1.34 0 0.68 0 0 Z " fill="#363B40" transform="translate(118,306)"/>
<path d="M0 0 C0 0.99 0 1.98 0 3 C-1.98 3.66 -3.96 4.32 -6 5 C-5.67 3.68 -5.34 2.36 -5 1 C-3.35 0.67 -1.7 0.34 0 0 Z " fill="#4C4F56" transform="translate(102,249)"/>
<path d="M0 0 C0.99 0 1.98 0 3 0 C3 0.66 3 1.32 3 2 C3.66 2.33 4.32 2.66 5 3 C4.34 3 3.68 3 3 3 C2.67 3.66 2.34 4.32 2 5 C1.01 5.495 1.01 5.495 0 6 C-1 3 -1 3 0 0 Z " fill="#33383E" transform="translate(379,242)"/>
<path d="M0 0 C0.66 0.33 1.32 0.66 2 1 C2.99 1.33 3.98 1.66 5 2 C5 2.66 5 3.32 5 4 C4.01 4 3.02 4 2 4 C1.67 4.66 1.34 5.32 1 6 C0.34 5.34 -0.32 4.68 -1 4 C-0.625 1.875 -0.625 1.875 0 0 Z " fill="#343B41" transform="translate(218,185)"/>
<path d="M0 0 C2.97 0.33 5.94 0.66 9 1 C9.33 1.99 9.66 2.98 10 4 C8.35 3.67 6.7 3.34 5 3 C5 2.34 5 1.68 5 1 C3.35 1 1.7 1 0 1 C0 0.67 0 0.34 0 0 Z " fill="#86888B" transform="translate(389,47)"/>
</svg>
